<svg width="15" height="15" viewBox="0 0 15 15" fill="none" xmlns="http://www.w3.org/2000/svg">
<path d="M5.99121 13.4686V14.9915L5.62386 14.694C5.56709 14.648 4.21658 13.5489 2.84706 11.9727C0.95787 9.79843 0 7.84669 0 6.17188V6.00587C0 2.69422 2.68764 0 5.99121 0C9.29478 0 11.9824 2.69422 11.9824 6.00587V6.17188C11.9824 6.31252 11.975 6.45535 11.9615 6.5999L10.7898 5.5284C10.5499 3.08622 8.48946 1.17188 5.99121 1.17188C3.33229 1.17188 1.16901 3.34045 1.16901 6.00587V6.17188C1.16901 9.00204 4.80663 12.4282 5.99121 13.4686V13.4686ZM9.58591 12.6269H11.3394V10.8691H9.58591V12.6269ZM5.99121 3.51562C7.36095 3.51562 8.47538 4.63278 8.47538 6.00587C8.47538 7.37897 7.36095 8.49612 5.99121 8.49612C4.62147 8.49612 3.50704 7.37897 3.50704 6.00587C3.50704 4.63278 4.62147 3.51562 5.99121 3.51562ZM5.99121 4.6875C5.266 4.6875 4.67606 5.27889 4.67606 6.00587C4.67606 6.73275 5.266 7.32425 5.99121 7.32425C6.71631 7.32425 7.30637 6.73275 7.30637 6.00587C7.30637 5.27889 6.71631 4.6875 5.99121 4.6875ZM14.2122 11.8306L13.8835 11.53V13.4113C13.8835 14.2874 13.1725 15 12.2986 15H8.59749C7.72362 15 7.0126 14.2874 7.0126 13.4113V11.53L6.68392 11.8306L5.89611 10.9649L10.448 6.80204L15 10.9649L14.2122 11.8306ZM12.7145 10.4609L10.448 8.38828L8.18161 10.4609V13.4112C8.18161 13.6411 8.36815 13.8281 8.59749 13.8281H12.2986C12.528 13.8281 12.7145 13.6411 12.7145 13.4112V10.4609Z" fill="white"/>
</svg>
