<svg width="26" height="27" viewBox="0 0 26 27" fill="none" xmlns="http://www.w3.org/2000/svg">
<path d="M10.3848 24.0351V26.6684L9.74802 26.1541C9.64963 26.0745 7.30873 24.174 4.93491 21.4487C1.66031 17.6891 0 14.3143 0 11.4184V11.1313C0 5.40517 4.65858 0.746582 10.3848 0.746582C16.1109 0.746582 20.7695 5.40517 20.7695 11.1313V11.4184C20.7695 11.6616 20.7566 11.9085 20.7332 12.1585L18.7024 10.3058C18.2864 6.08298 14.7151 2.77287 10.3848 2.77287C5.77597 2.77287 2.02629 6.52255 2.02629 11.1313V11.4184C2.02629 16.312 8.3315 22.2362 10.3848 24.0351V24.0351ZM16.6156 22.5797H19.6549V19.5404H16.6156V22.5797ZM10.3848 6.82545C12.759 6.82545 14.6907 8.75713 14.6907 11.1313C14.6907 13.5056 12.759 15.4372 10.3848 15.4372C8.01054 15.4372 6.07887 13.5056 6.07887 11.1313C6.07887 8.75713 8.01054 6.82545 10.3848 6.82545ZM10.3848 8.85175C9.12773 8.85175 8.10516 9.87431 8.10516 11.1313C8.10516 12.3882 9.12773 13.4109 10.3848 13.4109C11.6416 13.4109 12.6644 12.3882 12.6644 11.1313C12.6644 9.87431 11.6416 8.85175 10.3848 8.85175ZM24.6345 21.2029L24.0648 20.6832V23.9362C24.0648 25.4509 22.8323 26.6831 21.3176 26.6831H14.9023C13.3876 26.6831 12.1552 25.4509 12.1552 23.9362V20.6832L11.5855 21.2029L10.2199 19.706L18.1099 12.508L26 19.706L24.6345 21.2029ZM22.0385 18.8346L18.1099 15.2508L14.1815 18.8346V23.936C14.1815 24.3335 14.5048 24.6568 14.9023 24.6568H21.3176C21.7151 24.6568 22.0385 24.3335 22.0385 23.936V18.8346Z" fill="#0082C8"/>
</svg>
