<svg width="70" height="70" viewBox="0 0 70 70" fill="none" xmlns="http://www.w3.org/2000/svg">
<path d="M52.7734 31.4453C54.2836 31.4453 55.5078 30.2211 55.5078 28.7109C55.5078 27.2008 54.2836 25.9766 52.7734 25.9766C51.2633 25.9766 50.0391 27.2008 50.0391 28.7109C50.0391 30.2211 51.2633 31.4453 52.7734 31.4453Z" fill="#80CFF1"/>
<path d="M59.0625 5.46875H55.5078V2.73438C55.5078 1.22418 54.2836 0 52.7734 0C51.2632 0 50.0391 1.22418 50.0391 2.73438V5.46875H37.5977V2.73438C37.5977 1.22418 36.3735 0 34.8633 0C33.3531 0 32.1289 1.22418 32.1289 2.73438V5.46875H19.8242V2.73438C19.8242 1.22418 18.6 0 17.0898 0C15.5796 0 14.3555 1.22418 14.3555 2.73438V5.46875H10.9375C4.90656 5.46875 0 10.3753 0 16.4062V59.0625C0 65.0934 4.90656 70 10.9375 70H31.8555C33.3657 70 34.5898 68.7758 34.5898 67.2656C34.5898 65.7554 33.3657 64.5312 31.8555 64.5312H10.9375C7.92203 64.5312 5.46875 62.078 5.46875 59.0625V16.4062C5.46875 13.3908 7.92203 10.9375 10.9375 10.9375H14.3555V13.6719C14.3555 15.1821 15.5796 16.4062 17.0898 16.4062C18.6 16.4062 19.8242 15.1821 19.8242 13.6719V10.9375H32.1289V13.6719C32.1289 15.1821 33.3531 16.4062 34.8633 16.4062C36.3735 16.4062 37.5977 15.1821 37.5977 13.6719V10.9375H50.0391V13.6719C50.0391 15.1821 51.2632 16.4062 52.7734 16.4062C54.2836 16.4062 55.5078 15.1821 55.5078 13.6719V10.9375H59.0625C62.078 10.9375 64.5312 13.3908 64.5312 16.4062V31.9922C64.5312 33.5024 65.7554 34.7266 67.2656 34.7266C68.7758 34.7266 70 33.5024 70 31.9922V16.4062C70 10.3753 65.0934 5.46875 59.0625 5.46875Z" fill="#80CFF1"/>
<path d="M53.457 36.9141C44.3352 36.9141 36.9141 44.3352 36.9141 53.457C36.9141 62.5789 44.3352 70 53.457 70C62.5789 70 70 62.5789 70 53.457C70 44.3352 62.5789 36.9141 53.457 36.9141ZM53.457 64.5312C47.3508 64.5312 42.3828 59.5634 42.3828 53.457C42.3828 47.3506 47.3508 42.3828 53.457 42.3828C59.5633 42.3828 64.5312 47.3506 64.5312 53.457C64.5312 59.5634 59.5633 64.5312 53.457 64.5312Z" fill="#80CFF1"/>
<path d="M57.4219 50.7227H56.1914V47.8516C56.1914 46.3414 54.9672 45.1172 53.457 45.1172C51.9468 45.1172 50.7227 46.3414 50.7227 47.8516V53.457C50.7227 54.9672 51.9468 56.1914 53.457 56.1914H57.4219C58.9321 56.1914 60.1562 54.9672 60.1562 53.457C60.1562 51.9468 58.9321 50.7227 57.4219 50.7227Z" fill="#80CFF1"/>
<path d="M40.8789 31.4453C42.3891 31.4453 43.6133 30.2211 43.6133 28.7109C43.6133 27.2008 42.3891 25.9766 40.8789 25.9766C39.3688 25.9766 38.1445 27.2008 38.1445 28.7109C38.1445 30.2211 39.3688 31.4453 40.8789 31.4453Z" fill="#80CFF1"/>
<path d="M28.9844 43.3398C30.4945 43.3398 31.7188 42.1156 31.7188 40.6055C31.7188 39.0953 30.4945 37.8711 28.9844 37.8711C27.4742 37.8711 26.25 39.0953 26.25 40.6055C26.25 42.1156 27.4742 43.3398 28.9844 43.3398Z" fill="#80CFF1"/>
<path d="M17.0898 31.4453C18.6 31.4453 19.8242 30.2211 19.8242 28.7109C19.8242 27.2008 18.6 25.9766 17.0898 25.9766C15.5797 25.9766 14.3555 27.2008 14.3555 28.7109C14.3555 30.2211 15.5797 31.4453 17.0898 31.4453Z" fill="#80CFF1"/>
<path d="M17.0898 43.3398C18.6 43.3398 19.8242 42.1156 19.8242 40.6055C19.8242 39.0953 18.6 37.8711 17.0898 37.8711C15.5797 37.8711 14.3555 39.0953 14.3555 40.6055C14.3555 42.1156 15.5797 43.3398 17.0898 43.3398Z" fill="#80CFF1"/>
<path d="M17.0898 55.2344C18.6 55.2344 19.8242 54.0102 19.8242 52.5C19.8242 50.9898 18.6 49.7656 17.0898 49.7656C15.5797 49.7656 14.3555 50.9898 14.3555 52.5C14.3555 54.0102 15.5797 55.2344 17.0898 55.2344Z" fill="#80CFF1"/>
<path d="M28.9844 55.2344C30.4945 55.2344 31.7188 54.0102 31.7188 52.5C31.7188 50.9898 30.4945 49.7656 28.9844 49.7656C27.4742 49.7656 26.25 50.9898 26.25 52.5C26.25 54.0102 27.4742 55.2344 28.9844 55.2344Z" fill="#80CFF1"/>
<path d="M28.9844 31.4453C30.4945 31.4453 31.7188 30.2211 31.7188 28.7109C31.7188 27.2008 30.4945 25.9766 28.9844 25.9766C27.4742 25.9766 26.25 27.2008 26.25 28.7109C26.25 30.2211 27.4742 31.4453 28.9844 31.4453Z" fill="#80CFF1"/>
</svg>
