<svg width="68" height="70" viewBox="0 0 68 70" fill="none" xmlns="http://www.w3.org/2000/svg">
<path d="M61.4545 50.7326C55.3779 42.435 47.8036 40.5121 43.8062 39.2496V36.3151C46.4993 33.6472 48.1705 29.9477 48.1705 25.8646C48.1705 24.2878 48.1705 11.8284 48.1705 10.2583C48.1705 4.60182 43.5687 0 37.9124 0H29.0341C23.3778 0 18.776 4.60182 18.776 10.2581C18.776 11.8282 18.776 24.2877 18.776 25.8645C18.776 29.8833 20.3952 33.5304 23.0141 36.1881V39.3326C19.2857 40.5102 11.7033 42.4379 5.62885 50.7326C1.94633 55.7612 0 61.7144 0 67.9492C0 69.0818 0.918203 70 2.05078 70H65.0326C66.1652 70 67.0834 69.0818 67.0834 67.9492C67.0833 61.7144 65.1369 55.7612 61.4545 50.7326ZM39.7045 40.1533L33.7998 49.3954C33.5482 49.3795 33.3683 49.3797 33.1041 49.3987L27.1156 40.2255V39.1262C31.0804 41.038 35.7208 41.0597 39.7045 39.1854V40.1533ZM24.2908 20.8056C22.6238 15.4612 22.9175 16.4017 22.8776 16.2769V15.5295H44.069V16.2535C44.0251 16.3853 44.3382 15.4211 42.5919 20.8059C32.7183 19.3523 34.3079 19.3307 24.2908 20.8056ZM22.8776 10.2581C22.8776 6.86342 25.6394 4.10156 29.0341 4.10156H37.9124C41.3071 4.10156 44.069 6.86342 44.069 10.2581V11.4279H22.8776V10.2581ZM22.8776 24.7514C23.3044 24.903 23.7334 24.9685 24.0242 24.9685C24.2385 24.9685 23.7662 25.0286 30.5342 24.032C34.1186 23.5048 36.0702 23.9914 42.5581 24.9465C43.0343 25.0167 43.6218 24.8962 44.069 24.7283V25.8645C44.069 31.7141 39.3158 36.4733 33.4733 36.4733C27.6559 36.4733 22.8776 31.7373 22.8776 25.8645V24.7514ZM24.1984 43.26L29.4628 51.3238C26.5044 55.0397 29.7976 60.4998 34.4988 59.541V61.4711C34.4988 62.6037 35.417 63.5219 36.5496 63.5219C37.6822 63.5219 38.6004 62.6037 38.6004 61.4711V54.514C38.6004 53.2932 38.1713 52.1712 37.4571 51.2895L42.6371 43.1817C45.6415 44.1305 47.2318 44.5524 49.5834 45.7781V65.8984H17.5V45.7781C19.8498 44.5534 21.48 44.1185 24.1984 43.26ZM13.3984 48.457V65.8984H4.18387C4.74469 58.9399 8.13859 52.6859 13.3984 48.457ZM53.6848 65.8984V48.457C58.9445 52.6859 62.3386 58.9399 62.8994 65.8984H53.6848Z" fill="#80CFF1"/>
</svg>
