<svg width="70" height="70" viewBox="0 0 70 70" fill="none" xmlns="http://www.w3.org/2000/svg">
<path d="M67.9492 5.05219H58.9664C58.9989 4.05724 59.0171 3.05641 59.0171 2.05078C59.0171 0.918045 58.0985 0 56.9663 0H13.0337C11.9015 0 10.9829 0.918045 10.9829 2.05078C10.9829 3.05641 11.0011 4.05724 11.0336 5.05219H2.05078C0.918045 5.05219 0 5.97023 0 7.10297C0 16.292 2.40166 24.9613 6.76224 31.5147C11.0726 37.9934 16.8143 41.7094 23.0168 42.0709C24.423 43.601 25.9093 44.8486 27.4575 45.8002V54.915H24.0171C19.8579 54.915 16.4746 58.2988 16.4746 62.4575V65.8979H16.3288C15.1961 65.8979 14.278 66.8165 14.278 67.9487C14.278 69.0814 15.1961 69.9995 16.3288 69.9995H53.6712C54.8039 69.9995 55.722 69.0814 55.722 67.9487C55.722 66.8165 54.8039 65.8979 53.6712 65.8979H53.5254V62.4575C53.5254 58.2988 50.1421 54.915 45.9829 54.915H42.5425V45.8002C44.0907 44.8491 45.5775 43.601 46.9837 42.0709C53.1857 41.7094 58.9274 37.9934 63.2383 31.5147C67.5989 24.9613 70 16.292 70 7.10297C70 5.97023 69.082 5.05219 67.9492 5.05219ZM10.177 29.2429C6.58012 23.8377 4.46686 16.7678 4.14482 9.15375H11.2627C12.0024 18.5136 14.1995 27.1654 17.6335 34.0328C18.1804 35.1266 18.7524 36.16 19.3457 37.133C15.9347 35.8449 12.7779 33.1522 10.177 29.2429ZM49.4238 62.4575V65.8984H20.5762V62.4575C20.5762 60.5605 22.1196 59.0166 24.0171 59.0166H45.9829C47.8804 59.0166 49.4238 60.5605 49.4238 62.4575ZM38.4409 54.915H31.5591V47.5824C32.6865 47.8793 33.8352 48.0337 35 48.0337C36.1648 48.0337 37.3135 47.8793 38.4409 47.5824V54.915ZM39.7109 42.7032C39.6185 42.7412 39.5299 42.7871 39.445 42.8378C37.9955 43.5588 36.506 43.9321 35 43.9321C33.4945 43.9321 32.0055 43.5588 30.5566 42.8389C30.4707 42.7871 30.3815 42.7412 30.288 42.7022C28.68 41.852 27.1243 40.5681 25.6529 38.881C25.5755 38.7704 25.4884 38.6684 25.3918 38.5755C23.9311 36.8414 22.557 34.7084 21.302 32.1983C17.5331 24.6612 15.3563 14.7507 15.1085 4.10156H54.8915C54.6432 14.7507 52.4664 24.6617 48.698 32.1983C47.443 34.7084 46.0689 36.8414 44.6088 38.5755C44.5116 38.6684 44.4234 38.771 44.3465 38.8815C42.8752 40.5692 41.319 41.8525 39.7109 42.7032ZM59.823 29.2429C57.2221 33.1522 54.0653 35.8449 50.6543 37.133C51.2476 36.16 51.8196 35.1266 52.3665 34.0328C55.8005 27.1654 57.9971 18.5136 58.7373 9.15375H65.8552C65.5331 16.7678 63.4199 23.8377 59.823 29.2429Z" fill="#80CFF1"/>
</svg>
