<svg width="449" height="825" viewBox="0 0 449 825" fill="none" xmlns="http://www.w3.org/2000/svg">
<g clip-path="url(#clip0)">
<path fill-rule="evenodd" clip-rule="evenodd" d="M54.4049 347.881L56.9042 348.55L55.0857 330.47L71.5312 338.941L72.2152 337.457L52.326 327.213L54.4049 347.881Z" fill="#80CFF1"/>
<path fill-rule="evenodd" clip-rule="evenodd" d="M-391.553 77.4987L-132.023 780.299L-131.158 778.424L-388.794 80.756L309.312 -176.63L311.688 -181.78L-391.553 77.4987ZM-40.3426 581.51L-40.2695 581.352L-40.3936 581.366L-40.3426 581.51ZM-62.2543 519.52L-29.7385 558.517L-29.7228 558.483L-62.2867 519.429L-62.2543 519.52ZM15.6096 460.194L15.9672 459.419C15.5782 459.259 15.2102 459.068 14.8644 458.85C15.0632 459.323 15.3133 459.774 15.6096 460.194ZM30.9769 426.873L31.1862 426.418L-1.11691 383.463L2.29017 379.888L-0.783409 376.96L-3.87646 380.206L29.2829 424.3L-21.1607 391.906L-22.5214 392.518L30.9769 426.873ZM37.8167 412.042L38.8345 409.835L20.3457 404.698L18.5105 406.679L37.8167 412.042ZM25.2924 393.124L25.7074 392.676L28.6615 395.838L40.7862 405.605L41.134 404.851L9.87348 379.669L8.40486 379.52L25.2924 393.124ZM51.3369 380.894L52.1455 380.976L52.5316 380.14L27.5501 364.325L27.3003 367.458L9.1068 352.565L8.04547 352.694L30.0599 370.715L30.3097 367.583L51.3369 380.894ZM35.4995 322.814L37.2148 319.699L-22.0386 317.811L-25.1701 320.881L35.4995 322.814ZM-20.1987 310.045L-14.888 304.84L-21.6291 306.467L-21.4884 310.357L-20.1987 310.045ZM-24.9895 286.617L-25.1999 280.803L-37.8402 293.479L-36.9143 298.575L-24.9895 286.617ZM-16.6264 272.204L-20.0139 275.601L-16.3495 277.951L-8.69584 270.277L-16.6264 272.204ZM14.0967 282.391L28.3825 304.435L28.7891 304.061L14.4936 282.002L14.0967 282.391ZM55.744 285.068L78.0582 324.788L78.4775 323.879L56.357 284.504L55.744 285.068ZM84.2322 272.673L84.0274 272.295L84.5199 272.581L105.183 265.975L107.422 261.12L72.4992 272.285L71.4463 276.761L84.2322 272.673ZM105.892 200.655L106.1 199.223L101.142 196.174L100.031 197.05L105.892 200.655ZM103.354 188.997L104.011 188.479L99.3239 184.722L97.8365 184.574L103.354 188.997ZM124.024 178.132L126.977 184.472L128.28 184.601L124.932 177.416L124.024 178.132ZM144.259 177.457L142.052 174.157L133.568 174.82L133.586 178.291L144.259 177.457ZM130.65 142.665L130.636 140.114L100.659 132.405L96.4208 133.862L130.65 142.665ZM101.718 127.834L102.515 127.56L105.02 122.372L101.506 120.677L99.4977 124.837L97.284 123.769L96.53 125.332L101.718 127.834ZM130.509 116.739L130.499 114.781L123.494 111.471L121.916 112.679L130.509 116.739ZM140.98 98.0928L149.681 111.34L150.187 111.166L141.393 97.7773L140.98 98.0928ZM169.482 62.2554L185.113 92.6673L185.627 91.5542L169.151 59.5L169.482 62.2554ZM200.468 59.3703L201.572 56.9768L176.658 51.408L174.799 53.6325L200.468 59.3703ZM245.869 -39.0688L247.31 -42.1921L231.771 -42.6871L228.639 -39.6177L245.869 -39.0688ZM92.1436 55.4164L83.2224 51.2018L81.3566 52.2739L91.4902 57.0612L92.1436 55.4164ZM96.1863 43.7533L96.5675 44.334L113.746 66.8064L84.6538 84.4778L82.071 90.9801L94.8042 83.2457L94.5743 82.2741L95.6853 82.7107L116.505 70.0636L99.3271 47.5913L96.6372 43.4943L96.1863 43.7533ZM-32.4533 108.885L-12.9388 142.084L-33.048 143.197L-33.1071 146.61L-10.1792 145.342L-32.4292 107.488L-32.4533 108.885ZM133.555 52.2601L148.033 83.719L119.49 55.239L119.074 55.3271L150.792 86.976L134.704 52.017L133.555 52.2601ZM-53.0276 171.565L-52.8342 170.419L-94.9152 140.331L-96.0766 140.785L-53.0276 171.565ZM-72.5937 131.618L-51.5357 162.734L-51.4249 162.077L-72.1545 131.446L-72.5937 131.618ZM-47.0837 155.969L-43.5504 174.534L-40.239 179.424L-42.9938 177.456L-40.997 187.945L-51.7401 183.54L-52.076 185.527L-38.2375 191.203L-40.234 180.713L-37.4794 182.681L-40.7906 177.791L-46.0779 150.012L-47.0837 155.969ZM108.507 89.9207L99.3704 94.142L100.337 98.2278L113.809 92.0035L108.507 89.9207ZM45.4117 117.52L52.292 140.707L21.125 130.44L18.399 131.89L55.0515 143.964L46.9604 116.696L45.4117 117.52ZM77.4538 112.737L75.2071 117.565L67.2725 113.15L64.3881 113.267L77.9667 120.822L81.8116 112.561L77.4538 112.737ZM12.5027 144.158L13.3767 145.674L8.88088 148.263L10.979 151.902L16.1366 148.931L13.1638 143.777L12.5027 144.158ZM-28.0101 226.938L-107.231 214.439L-109.826 216.852L-27.5393 229.834L-26.2541 228.605L-28.0101 226.938ZM-4.87672 167.263L-8.04945 175.532L-5.48383 179.295L-1.10805 167.892L-4.87672 167.263ZM27.2498 162.715L31.8768 171.94L22.0465 165.814L20.7852 166.565L34.6364 175.197L28.1167 162.199L27.2498 162.715ZM-26.6951 187.608L-13.427 210.178L-27.0701 209.133L-27.1231 212.174L-10.6675 213.436L-26.6705 186.211L-26.6951 187.608ZM99.5272 143.247L85.9699 169.062L66.0852 152.851L65.1715 153.113L88.7297 172.319L104.791 141.735L99.5272 143.247ZM-144.067 242.117L-146.868 252.163L-163.611 246.161L-167.623 246.991L-144.108 255.42L-140.175 241.312L-144.067 242.117ZM-104.22 249.793L-106.441 257.342L-112.825 255.466L-113.487 257.717L-103.681 260.599L-100.798 250.798L-104.22 249.793ZM43.647 195.411L60.8415 226.019L28.4868 209.349L27.2074 210.526L63.601 229.276L44.2604 194.847L43.647 195.411ZM75.4204 194.375L76.7571 209.61L79.5425 213.161L77.9346 194.832L75.4204 194.375ZM31.006 263.487L-39.3332 247.007L-41.5263 249.104L37.102 267.525L31.006 263.487ZM-111.897 283.298L-127.557 293.929L-125.887 297.925L-106.151 284.527L-111.897 283.298ZM47.6803 245.407L35.5729 250.317L34.8415 254.99L54.1865 247.144L47.6803 245.407ZM-66.605 299.787L-70.6445 311.982L-66.3476 310.598L-62.0503 297.624L-66.605 299.787ZM-51.2478 309.881L-55.9315 325.244L-73.6241 320.979L-82.2692 347.078L-120.302 325.278L-121.901 326.037L-79.5095 350.335L-70.8644 324.236L-53.1719 328.501L-47.0863 308.541L-51.2478 309.881ZM-37.6227 325.149C-36.8054 327.308 -37.19 329.834 -38.8383 331.669C-39.5584 332.472 -40.4348 333.049 -41.3812 333.399C-43.1437 334.048 -45.1445 333.902 -46.8153 332.928C-46.4644 333.856 -45.8925 334.715 -45.1028 335.423C-43.2761 337.057 -40.7711 337.448 -38.6217 336.656C-37.6753 336.306 -36.7986 335.729 -36.0785 334.927C-33.7221 332.302 -33.9481 328.267 -36.5774 325.911C-36.9057 325.617 -37.256 325.363 -37.6227 325.149ZM2.22303 333.682L-13.8843 375.892L-7.86909 369.582L-7.57927 369.858L9.31048 325.599L2.22303 333.682ZM-23.663 411.631L-68.2552 424.157L-66.9726 427.83L-19.6802 414.545L-23.663 411.631ZM-99.3245 414.596L-69.4974 472.629L-92.6474 470.239L-92.2864 473.249L-66.7376 475.886L-99.6551 411.84L-99.3245 414.596ZM-15.4274 417.62L5.28075 444.314L-22.9057 441.376L-23.8106 444.252L8.0403 447.571L-15.3604 417.406L-15.4274 417.62ZM-41.7336 449.79C-41.0992 452.041 -42.0751 454.51 -44.2152 455.674C-44.4395 455.796 -44.6697 455.9 -44.903 455.986C-46.2186 456.471 -47.6417 456.382 -48.8563 455.813C-48.7539 456.178 -48.6088 456.537 -48.4193 456.884C-47.1838 459.146 -44.492 460.109 -42.1432 459.244C-41.9102 459.157 -41.68 459.053 -41.4557 458.931C-38.9677 457.578 -38.0534 454.462 -39.4123 451.974C-39.9554 450.98 -40.7802 450.237 -41.7336 449.79ZM-25.1685 475.122L-40.2574 488.517L-39.0661 493.166L-17.1101 473.675L-25.1685 475.122ZM-90.4858 600.815L-70.973 634.015L-91.0822 635.126L-91.1416 638.539L-68.2134 637.272L-90.4617 599.418L-90.4858 600.815ZM-105.118 647.897L-99.0299 679.874L-109.775 675.468L-110.111 677.456L-96.2704 683.132L-104.112 641.942L-105.118 647.897Z" fill="#80CFF1"/>
<path fill-rule="evenodd" clip-rule="evenodd" d="M10.832 479.794L18.4002 480.761L43.7155 469.421L43.9658 464.815L10.9111 479.623L10.832 479.794Z" fill="#80CFF1"/>
<path fill-rule="evenodd" clip-rule="evenodd" d="M33.0539 506.631L33.039 506.637L33.0243 506.643L33.0101 506.648C30.1212 507.715 28.3512 510.751 28.9636 513.871C29.3333 515.743 30.4868 517.261 32.0158 518.153C31.8917 517.825 31.7934 517.483 31.7234 517.128C31.111 514.009 32.8807 510.972 35.7696 509.905L35.7839 509.901L35.7988 509.894L35.8136 509.888C36.1169 509.78 36.4318 509.693 36.7566 509.629C38.3458 509.317 39.913 509.622 41.2102 510.379C40.1288 507.512 37.1042 505.762 33.997 506.372C33.6721 506.436 33.3571 506.523 33.0539 506.63" fill="#80CFF1"/>
<path fill-rule="evenodd" clip-rule="evenodd" d="M276.546 559.174L276.836 555.546L253.151 558.431L256.973 561.559L276.546 559.174Z" fill="#80CFF1"/>
<path fill-rule="evenodd" clip-rule="evenodd" d="M268.556 295.704L274.447 295.891L296.312 274.46L293.949 270.814L268.556 295.704Z" fill="#80CFF1"/>
<path fill-rule="evenodd" clip-rule="evenodd" d="M98.0832 759.255L102.678 760.532L110.8 751.767L124.707 766.653L125.09 766.759L108.041 748.51L98.0832 759.255Z" fill="#80CFF1"/>
<path fill-rule="evenodd" clip-rule="evenodd" d="M283.043 509.156L285.441 509.403L280.759 470.386L277.668 464.374L283.043 509.156Z" fill="#80CFF1"/>
<path fill-rule="evenodd" clip-rule="evenodd" d="M216.841 609.361L219.915 612.288L226.653 605.223L230.979 609.343L231.293 609.014L223.893 601.966L216.841 609.361Z" fill="#80CFF1"/>
<path fill-rule="evenodd" clip-rule="evenodd" d="M59.9207 364.114L65.1637 361.988L68.741 354.233L69.776 351.989L81.8603 355.216L78.1136 356.736L68.741 354.233L64.9468 353.218L59.9207 364.114Z" fill="#80CFF1"/>
<path fill-rule="evenodd" clip-rule="evenodd" d="M297.487 -2.15886L297.777 -5.78769L274.094 -2.90197L277.916 0.225716L297.487 -2.15886Z" fill="#80CFF1"/>
<path fill-rule="evenodd" clip-rule="evenodd" d="M284.558 51.0803L289.153 52.3574L297.276 43.5941L311.183 58.4794L311.566 58.5861L294.516 40.3369L284.558 51.0803Z" fill="#80CFF1"/>
<path fill-rule="evenodd" clip-rule="evenodd" d="M159.774 147.608L163.585 148.588L187.359 97.0377L185.113 92.6674L159.774 147.608Z" fill="#80CFF1"/>
<path fill-rule="evenodd" clip-rule="evenodd" d="M253.888 24.6381L256.963 27.5656L263.699 20.5007L268.025 24.6209L268.339 24.2917L260.94 17.2434L253.888 24.6381Z" fill="#80CFF1"/>
<path fill-rule="evenodd" clip-rule="evenodd" d="M218.731 65.6052L222.348 65.8374L231.865 32.2375L285.476 69.8874L287.544 70.0201L229.105 28.9801L218.731 65.6052Z" fill="#80CFF1"/>
<path fill-rule="evenodd" clip-rule="evenodd" d="M292.151 227.127L298.024 227.782L312.526 215.662L310.454 211.83L292.151 227.127Z" fill="#80CFF1"/>
<path fill-rule="evenodd" clip-rule="evenodd" d="M285.32 146.165L289.352 143.732L300.2 95.2371L340.116 113.097L342.041 111.936L297.44 91.98L285.32 146.165Z" fill="#80CFF1"/>
<path fill-rule="evenodd" clip-rule="evenodd" d="M333.201 181.835L336.718 180.733L338.468 170.663L355.382 174.883L359.944 173.453L335.709 167.405L333.201 181.835Z" fill="#80CFF1"/>
<path fill-rule="evenodd" clip-rule="evenodd" d="M293.073 176.313L296.331 176.928L297.726 169.532L304.513 170.811L305.011 168.167L294.966 166.275L293.073 176.313Z" fill="#80CFF1"/>
<path fill-rule="evenodd" clip-rule="evenodd" d="M269.031 152.164L270.892 149.737L211.175 138.994L215.073 142.456L269.031 152.164Z" fill="#80CFF1"/>
<path fill-rule="evenodd" clip-rule="evenodd" d="M123.867 391.287L126.389 389.362L125.326 366.138L140.024 378.955L140.544 378.558L122.566 362.88L123.867 391.287Z" fill="#80CFF1"/>
<path fill-rule="evenodd" clip-rule="evenodd" d="M117.594 304.909L91.731 330.73L97.9131 330.57L119.231 309.287L119.476 306.662L117.594 304.909ZM161.455 294.147L161.954 290.703L106.481 293.867L109.934 297.085L161.455 294.147Z" fill="#80CFF1"/>
<path fill-rule="evenodd" clip-rule="evenodd" d="M91.1979 406.761L89.3769 406.735L95.0855 418.223L108.176 456.822L109.311 455.29L97.8454 421.48L92.1367 409.992L93.9575 410.018L89.3027 396.288L136.669 418.379L137.754 416.915L86.5431 393.031L91.1979 406.761Z" fill="#80CFF1"/>
<path fill-rule="evenodd" clip-rule="evenodd" d="M88.2598 376.474L91.113 376.557L91.3205 369.521L98.6858 369.738L98.7796 366.564L88.5607 366.263L88.2598 376.474Z" fill="#80CFF1"/>
<path fill-rule="evenodd" clip-rule="evenodd" d="M149.018 238.668L149.161 238.269L126.488 206.583L158.84 211.219L159.814 208.497L123.728 203.326L149.018 238.668Z" fill="#80CFF1"/>
<path fill-rule="evenodd" clip-rule="evenodd" d="M201.414 173.665L206.72 182.395L207.29 182.05L204.174 176.922L212.34 171.966L210.151 168.363L201.414 173.665Z" fill="#80CFF1"/>
<path fill-rule="evenodd" clip-rule="evenodd" d="M56.83 470.987L59.7433 470.909L61.2466 438.262L58.5617 433.379L56.83 470.987Z" fill="#80CFF1"/>
<path fill-rule="evenodd" clip-rule="evenodd" d="M99.6837 498.63C98.9216 501.087 100.125 503.688 102.399 504.741C102.148 503.836 102.145 502.85 102.444 501.887C102.931 500.314 104.11 499.147 105.545 498.618C106.557 498.245 107.692 498.189 108.803 498.532C109.024 498.6 109.236 498.683 109.441 498.777C108.994 497.164 107.761 495.806 106.043 495.275C104.933 494.931 103.797 494.988 102.786 495.361C101.35 495.89 100.171 497.056 99.6837 498.63Z" fill="#80CFF1"/>
<path fill-rule="evenodd" clip-rule="evenodd" d="M226.588 375.863L230.212 373.237L170.621 367.344L174.869 370.748L226.588 375.863Z" fill="#80CFF1"/>
<path fill-rule="evenodd" clip-rule="evenodd" d="M234.92 252.413L235.002 248.178L165.813 271.972L172.811 273.772L234.92 252.413Z" fill="#80CFF1"/>
<path fill-rule="evenodd" clip-rule="evenodd" d="M28.3349 576.361L31.4793 578.476L43.1609 543.808L41.4872 537.329L28.3349 576.361Z" fill="#80CFF1"/>
<path fill-rule="evenodd" clip-rule="evenodd" d="M168.728 494.733L170.724 491.603L124.003 490.352L128.134 493.646L168.728 494.733Z" fill="#80CFF1"/>
<path fill-rule="evenodd" clip-rule="evenodd" d="M97.4236 606.52L99.7775 605.71L91.4245 521.973L88.6495 518.562L97.4236 606.52Z" fill="#80CFF1"/>
<path fill-rule="evenodd" clip-rule="evenodd" d="M277.947 398.524L277.921 398.23L249.261 361.689L275.129 366.397L274.883 363.597L246.502 358.432L277.947 398.524Z" fill="#80CFF1"/>
<path fill-rule="evenodd" clip-rule="evenodd" d="M234.492 442.776L234.466 442.482L216.171 419.159L232.682 422.163L232.436 419.363L213.411 415.901L234.492 442.776Z" fill="#80CFF1"/>
<path fill-rule="evenodd" clip-rule="evenodd" d="M177.394 496.205L180.885 494.789L182.65 483.507L198.358 487.704L202.104 486.184L179.89 480.25L177.394 496.205Z" fill="#80CFF1"/>
<path fill-rule="evenodd" clip-rule="evenodd" d="M167.644 439.412L171.683 441.493L191.57 423.203L189.423 419.382L167.644 439.412Z" fill="#80CFF1"/>
<path fill-rule="evenodd" clip-rule="evenodd" d="M57.1648 351.139L68.7409 354.232L74.9751 340.715L55.0859 330.469L57.1648 351.139Z" fill="#A2D9F7" fill-opacity="0.75"/>
<path fill-rule="evenodd" clip-rule="evenodd" d="M-388.794 80.7557L-129.263 783.556L-84.8639 687.289L-84.8114 687.171L-82.4314 682.013L-71.8797 659.134L-71.264 657.801L-37.51 584.608L-39.1783 584.805L-62.2868 519.428L-26.9789 561.775L-14.8553 535.49L-26.2876 504.626L-4.89357 513.89L18.7264 462.676C15.3688 461.298 13.5392 457.591 14.6318 454.061C15.788 450.322 19.7579 448.23 23.4978 449.386C23.8993 449.509 24.2729 449.68 24.634 449.866L41.5945 413.092L18.51 406.678L28.4669 395.933L42.5542 411.011L43.8932 408.108L8.4042 379.521L54.9057 384.233L55.2911 383.397L30.3099 367.582L30.0603 370.715L8.04508 352.694L24.7158 350.664L39.9742 322.956L-25.1705 320.881L-12.129 308.097L-21.4887 310.356L-22.4397 284.06L-36.9147 298.576L-40.6447 278.043L-8.69594 270.277L-17.2544 278.859L3.87486 292.409L14.4936 282.002L31.1424 307.692L56.3576 284.504L80.8182 328.045L96.6302 293.761L86.7874 275.552L101.17 283.918L110.182 264.377L71.4467 276.761L80.8626 236.735L102.76 244.403L108.86 202.48L100.031 197.05L106.771 191.736L97.8366 184.573L111.272 185.904L111.455 184.638L111.737 185.948L113.847 186.158L124.932 177.416L129.737 187.729L144.842 189.222L148.053 182.261L144.812 177.414L133.586 178.29L133.491 160.479L131.553 157.58L133.477 158.085L133.396 143.371L96.4212 133.862L133.276 121.188L133.258 118.037L121.916 112.68L141.392 97.7768L152.441 114.597L174.839 106.896L169.151 59.4997L187.872 95.9243L204.331 60.2346L174.798 53.6318L208.046 13.8531L220.275 25.6673L250.069 -38.9352L228.639 -39.6182L268.303 -78.4971L268.31 -78.4864L314.447 -178.523L-388.794 80.756L-388.794 80.7557ZM94.9028 58.6735L81.356 52.2739L96.6369 43.494L99.328 47.5909L116.505 70.0633L82.071 90.9804L94.9028 58.6735ZM-33.1075 146.609L-32.4292 107.487L-10.1793 145.342L-33.1075 146.609ZM119.074 55.3269L134.704 52.0166L150.793 86.9759L119.074 55.3269ZM-52.0759 185.528L-50.0745 173.677L-96.0773 140.785L-72.1553 131.446L-48.7768 165.99L-46.0782 150.012L-40.7906 177.791L-37.4805 182.681L-40.2346 180.713L-38.238 191.202L-52.0759 185.528ZM97.3338 85.5307L113.809 92.003L100.336 98.2271L97.3338 85.5307ZM18.3991 131.89L46.9602 116.697L55.0512 143.964L18.3991 131.89ZM64.3887 113.267L81.8115 112.561L77.9671 120.822L64.3887 113.267ZM8.00722 146.747L13.164 143.777L16.1368 148.93L10.9787 151.902L8.00722 146.747ZM-109.826 216.852L-73.8626 183.411L-24.4451 230.322L-109.826 216.852ZM96.5304 125.332L99.2917 119.609L105.02 122.372L102.257 128.094L96.5304 125.332ZM-14.815 165.607L-1.1084 167.892L-5.48385 179.294L-14.815 165.607ZM20.7847 166.565L28.1169 162.199L34.6366 175.197L20.7847 166.565ZM-27.1233 212.174L-26.6711 186.211L-10.6675 213.436L-27.1233 212.174ZM65.1718 153.113L104.792 141.735L88.7294 172.319L65.1718 153.113ZM-167.624 246.99L-140.175 241.312L-144.109 255.42L-167.624 246.99ZM-113.487 257.716L-110.604 247.916L-100.799 250.798L-103.681 260.599L-113.487 257.716ZM27.2073 210.526L44.2601 194.846L63.6014 229.276L27.2073 210.526ZM63.0399 192.121L77.9345 194.832L79.5424 213.161L63.0399 192.121ZM-41.5267 249.104L-20.7248 229.213L37.1026 267.526L-41.5267 249.104ZM-133.976 278.573L-106.151 284.527L-125.887 297.925L-133.976 278.573ZM36.7962 242.499L54.1863 247.145L34.8419 254.99L36.7962 242.499ZM-121.901 326.038L-62.0509 297.624L-67.8848 315.239L-47.086 308.541L-53.1725 328.502L-70.8646 324.236L-79.51 350.335L-121.901 326.038ZM-45.1034 335.423C-47.7298 333.069 -47.9533 329.032 -45.5971 326.406C-43.2447 323.778 -39.2034 323.56 -36.5774 325.911C-33.9482 328.267 -33.7223 332.303 -36.0793 334.927C-36.799 335.73 -37.6752 336.307 -38.6217 336.656C-40.7713 337.449 -43.2763 337.056 -45.1034 335.423ZM-22.5212 392.518L-18.0706 390.519L-31.4739 372.114L-25.1798 364.934L-29.6717 358.25L-8.95216 346.428L9.31084 325.599L-11.1251 379.149L-5.10871 372.84L2.28982 379.888L-1.11748 383.463L32.0424 427.557L-22.5212 392.518ZM-66.9724 427.83L-89.43 363.52L-19.6799 414.545L-66.9724 427.83ZM-92.2863 473.249L-99.655 411.84L-66.738 475.886L-92.2863 473.249ZM-23.8106 444.251L-15.361 417.406L8.04061 447.572L-23.8106 444.251ZM-48.4195 456.885C-49.7757 454.399 -48.8591 451.284 -46.372 449.928C-43.8847 448.572 -40.7688 449.49 -39.4119 451.974C-38.0537 454.462 -38.968 457.578 -41.4563 458.931C-41.6808 459.053 -41.9101 459.157 -42.1433 459.243C-44.4925 460.109 -47.184 459.147 -48.4195 456.885ZM-42.8749 478.301L-17.1108 473.675L-39.0662 493.167L-42.8749 478.301ZM-91.1422 638.539L-90.4617 599.418L-68.2135 637.272L-91.1422 638.539ZM-110.111 677.456L-104.113 641.942L-96.2711 683.131L-110.111 677.456Z" fill="#A2D9F7" fill-opacity="0.75"/>
<path fill-rule="evenodd" clip-rule="evenodd" d="M13.3555 483.021L45.6893 487.153L46.725 468.073L13.3555 483.021Z" fill="#A2D9F7" fill-opacity="0.75"/>
<path fill-rule="evenodd" clip-rule="evenodd" d="M35.8133 509.889L35.7987 509.894L35.7836 509.9L35.7688 509.905C32.8806 510.972 31.1104 514.008 31.7233 517.127C32.406 520.587 35.7639 522.841 39.2251 522.159C42.6893 521.479 44.9417 518.121 44.2618 514.661C43.5784 511.201 40.2183 508.949 36.7566 509.629C36.4312 509.693 36.1163 509.78 35.8133 509.889" fill="#A2D9F7" fill-opacity="0.75"/>
<path fill-rule="evenodd" clip-rule="evenodd" d="M-27.0605 597.413L0.960334 584.269L-23.8941 568.88L-27.0605 597.413Z" fill="#A2D9F7" fill-opacity="0.75"/>
<path fill-rule="evenodd" clip-rule="evenodd" d="M277.925 579.706L279.596 558.802L255.91 561.688L277.925 579.706Z" fill="#A2D9F7" fill-opacity="0.75"/>
<path fill-rule="evenodd" clip-rule="evenodd" d="M271.315 298.961L313.719 300.312L296.708 274.071L271.315 298.961Z" fill="#A2D9F7" fill-opacity="0.75"/>
<path fill-rule="evenodd" clip-rule="evenodd" d="M100.843 762.512L127.85 770.016L110.8 751.767L100.843 762.512Z" fill="#A2D9F7" fill-opacity="0.75"/>
<path fill-rule="evenodd" clip-rule="evenodd" d="M285.802 512.413L304.433 514.335L280.428 467.631L285.802 512.413Z" fill="#A2D9F7" fill-opacity="0.75"/>
<path fill-rule="evenodd" clip-rule="evenodd" d="M219.602 612.618L227.001 619.666L234.052 612.271L226.653 605.223L219.602 612.618Z" fill="#A2D9F7" fill-opacity="0.75"/>
<path fill-rule="evenodd" clip-rule="evenodd" d="M62.68 367.371L84.6204 358.473L68.741 354.232L62.68 367.371Z" fill="#A2D9F7" fill-opacity="0.75"/>
<path fill-rule="evenodd" clip-rule="evenodd" d="M298.868 18.3744L300.536 -2.5306L276.853 0.354886L298.868 18.3744Z" fill="#A2D9F7" fill-opacity="0.75"/>
<path fill-rule="evenodd" clip-rule="evenodd" d="M287.318 54.3374L314.325 61.842L297.275 43.594L287.318 54.3374Z" fill="#A2D9F7" fill-opacity="0.75"/>
<path fill-rule="evenodd" clip-rule="evenodd" d="M162.534 150.864L182.082 155.891L182.752 121.553L202.069 123.546L187.872 95.9241L162.534 150.864Z" fill="#A2D9F7" fill-opacity="0.75"/>
<path fill-rule="evenodd" clip-rule="evenodd" d="M256.648 27.8951L264.048 34.9426L271.098 27.5485L263.699 20.5004L256.648 27.8951Z" fill="#A2D9F7" fill-opacity="0.75"/>
<path fill-rule="evenodd" clip-rule="evenodd" d="M221.491 68.8623L290.303 73.2768L231.865 32.2373L221.491 68.8623Z" fill="#A2D9F7" fill-opacity="0.75"/>
<path fill-rule="evenodd" clip-rule="evenodd" d="M294.91 230.383L323.19 233.539L313.214 215.087L294.91 230.383Z" fill="#A2D9F7" fill-opacity="0.75"/>
<path fill-rule="evenodd" clip-rule="evenodd" d="M288.079 149.422L344.8 115.193L300.199 95.2366L288.079 149.422Z" fill="#A2D9F7" fill-opacity="0.75"/>
<path fill-rule="evenodd" clip-rule="evenodd" d="M335.961 185.092L362.705 176.711L338.468 170.663L335.961 185.092Z" fill="#A2D9F7" fill-opacity="0.75"/>
<path fill-rule="evenodd" clip-rule="evenodd" d="M295.833 179.571L305.878 181.465L307.77 171.425L297.726 169.533L295.833 179.571Z" fill="#A2D9F7" fill-opacity="0.75"/>
<path fill-rule="evenodd" clip-rule="evenodd" d="M254.358 178.151L273.651 152.995L213.935 142.251L254.358 178.151Z" fill="#A2D9F7" fill-opacity="0.75"/>
<path fill-rule="evenodd" clip-rule="evenodd" d="M126.627 394.544L143.303 381.815L125.326 366.137L126.627 394.544Z" fill="#A2D9F7" fill-opacity="0.75"/>
<path fill-rule="evenodd" clip-rule="evenodd" d="M120.709 307.811L94.4907 333.988L120.049 333.327L122.295 309.29L157.707 342.291L164.714 293.961L109.24 297.125L120.709 307.811Z" fill="#A2D9F7" fill-opacity="0.75"/>
<path fill-rule="evenodd" clip-rule="evenodd" d="M93.9577 410.018L92.1367 409.992L97.8457 421.48L110.935 460.079L140.515 420.172L89.3025 396.288L93.9577 410.018Z" fill="#A2D9F7" fill-opacity="0.75"/>
<path fill-rule="evenodd" clip-rule="evenodd" d="M91.0195 379.731L101.238 380.03L101.539 369.822L91.3206 369.521L91.0195 379.731Z" fill="#A2D9F7" fill-opacity="0.75"/>
<path fill-rule="evenodd" clip-rule="evenodd" d="M151.778 241.926L162.574 211.754L126.488 206.583L151.778 241.926Z" fill="#A2D9F7" fill-opacity="0.75"/>
<path fill-rule="evenodd" clip-rule="evenodd" d="M204.174 176.922L209.479 185.653L218.214 180.351L212.91 171.619L204.174 176.922Z" fill="#A2D9F7" fill-opacity="0.75"/>
<path fill-rule="evenodd" clip-rule="evenodd" d="M59.5892 474.244L81.678 473.653L61.3208 436.637L59.5892 474.244Z" fill="#A2D9F7" fill-opacity="0.75"/>
<path fill-rule="evenodd" clip-rule="evenodd" d="M102.443 501.887C101.613 504.565 103.117 507.413 105.797 508.244C108.482 509.073 111.327 507.568 112.156 504.889C112.986 502.207 111.486 499.361 108.802 498.532C107.692 498.189 106.556 498.245 105.545 498.618C104.111 499.147 102.931 500.313 102.443 501.887Z" fill="#A2D9F7" fill-opacity="0.75"/>
<path fill-rule="evenodd" clip-rule="evenodd" d="M205.535 396.371L232.972 376.494L173.382 370.602L205.535 396.371Z" fill="#A2D9F7" fill-opacity="0.75"/>
<path fill-rule="evenodd" clip-rule="evenodd" d="M236.958 292.818L237.762 251.436L168.574 275.229L236.958 292.818Z" fill="#A2D9F7" fill-opacity="0.75"/>
<path fill-rule="evenodd" clip-rule="evenodd" d="M31.0948 579.619L59.2119 598.529L44.2459 540.586L31.0948 579.619Z" fill="#A2D9F7" fill-opacity="0.75"/>
<path fill-rule="evenodd" clip-rule="evenodd" d="M158.265 518.726L173.483 494.86L126.763 493.61L158.265 518.726Z" fill="#A2D9F7" fill-opacity="0.75"/>
<path fill-rule="evenodd" clip-rule="evenodd" d="M100.182 609.777L149.237 592.897L91.4093 521.819L100.182 609.777Z" fill="#A2D9F7" fill-opacity="0.75"/>
<path fill-rule="evenodd" clip-rule="evenodd" d="M280.706 401.781L277.643 366.855L249.261 361.689L280.706 401.781Z" fill="#A2D9F7" fill-opacity="0.75"/>
<path fill-rule="evenodd" clip-rule="evenodd" d="M237.251 446.033L235.196 422.621L216.171 419.159L237.251 446.033Z" fill="#A2D9F7" fill-opacity="0.75"/>
<path fill-rule="evenodd" clip-rule="evenodd" d="M180.155 499.461L204.865 489.442L182.65 483.507L180.155 499.461Z" fill="#A2D9F7" fill-opacity="0.75"/>
<path fill-rule="evenodd" clip-rule="evenodd" d="M170.404 442.669L216.89 466.617L192.183 422.639L170.404 442.669Z" fill="#A2D9F7" fill-opacity="0.75"/>
</g>
<defs>
<clipPath id="clip0">
<rect width="816.354" height="998.631" fill="white" transform="translate(-365.363 -238) rotate(4.74665)"/>
</clipPath>
</defs>
</svg>
