<svg width="477" height="568" viewBox="0 0 477 568" fill="none" xmlns="http://www.w3.org/2000/svg">
<g clip-path="url(#clip0)">
<path fill-rule="evenodd" clip-rule="evenodd" d="M465.875 128.85L461.045 126.679L459.895 123.667L458.115 125.363L457.667 125.162L462.655 120.41L465.875 128.85Z" fill="#80CFF1"/>
<path fill-rule="evenodd" clip-rule="evenodd" d="M393.786 90.8815L391.287 91.5495L393.105 73.4698L376.66 81.9407L375.976 80.4575L395.865 70.2127L393.786 90.8815Z" fill="#80CFF1"/>
<path fill-rule="evenodd" clip-rule="evenodd" d="M839.744 -179.501L580.213 523.299L579.349 521.424L836.985 -176.244L138.879 -433.63L136.503 -438.78L839.744 -179.501ZM488.533 324.51L488.46 324.352L488.584 324.366L488.533 324.51ZM510.445 262.52L477.929 301.517L477.914 301.483L510.478 262.429L510.445 262.52ZM432.581 203.194L432.224 202.419C432.613 202.259 432.981 202.068 433.326 201.85C433.128 202.323 432.877 202.774 432.581 203.194ZM417.214 169.873L417.005 169.418L449.308 126.463L445.901 122.888L448.974 119.96L452.067 123.206L418.908 167.3L469.351 134.906L470.712 135.518L417.214 169.873ZM410.374 155.042L409.356 152.835L427.845 147.698L429.68 149.679L410.374 155.042ZM422.898 136.124L422.483 135.676L419.529 138.838L407.405 148.605L407.057 147.851L438.317 122.669L439.786 122.52L422.898 136.124ZM396.854 123.894L396.045 123.976L395.659 123.14L420.641 107.325L420.89 110.458L439.084 95.5648L440.145 95.6941L418.131 113.715L417.881 110.583L396.854 123.894ZM412.691 65.8138L410.976 62.6992L470.229 60.8111L473.361 63.8806L412.691 65.8138ZM468.39 53.0454L463.079 47.84L469.82 49.4674L469.679 53.3567L468.39 53.0454ZM473.18 29.6165L473.391 23.8029L486.031 36.4785L485.105 41.5748L473.18 29.6165ZM464.817 15.2043L468.205 18.6012L464.54 20.9512L456.887 13.2765L464.817 15.2043ZM434.094 25.3909L419.808 47.435L419.402 47.0611L433.697 25.0021L434.094 25.3909ZM392.447 28.0682L370.133 67.7877L369.713 66.8788L391.834 27.5041L392.447 28.0682ZM363.959 15.6733L364.163 15.2948L363.671 15.5812L343.008 8.97508L340.769 4.11982L375.692 15.2846L376.744 19.7609L363.959 15.6733ZM342.299 -56.3454L342.091 -57.777L347.048 -60.8263L348.16 -59.9503L342.299 -56.3454ZM344.837 -68.0029L344.18 -68.521L348.867 -72.2784L350.354 -72.4257L344.837 -68.0029ZM324.167 -78.8679L321.213 -72.5277L319.911 -72.399L323.259 -79.5841L324.167 -78.8679ZM303.932 -79.543L306.138 -82.8434L314.623 -82.1805L314.604 -78.7088L303.932 -79.543ZM317.541 -114.335L317.555 -116.886L347.532 -124.595L351.77 -123.138L317.541 -114.335ZM346.473 -129.166L345.676 -129.44L343.171 -134.628L346.685 -136.323L348.693 -132.163L350.907 -133.231L351.661 -131.668L346.473 -129.166ZM317.682 -140.261L317.692 -142.219L324.696 -145.529L326.275 -144.321L317.682 -140.261ZM307.211 -158.907L298.51 -145.66L298.004 -145.834L306.798 -159.223L307.211 -158.907ZM278.709 -194.745L263.078 -164.333L262.564 -165.446L279.04 -197.5L278.709 -194.745ZM247.723 -197.63L246.619 -200.023L271.533 -205.592L273.392 -203.367L247.723 -197.63ZM202.322 -296.069L200.881 -299.192L216.42 -299.687L219.552 -296.618L202.322 -296.069ZM356.047 -201.584L364.968 -205.798L366.834 -204.726L356.701 -199.939L356.047 -201.584ZM352.005 -213.247L351.623 -212.666L334.445 -190.194L363.537 -172.522L366.12 -166.02L353.387 -173.754L353.617 -174.726L352.506 -174.289L331.685 -186.936L348.864 -209.409L351.554 -213.506L352.005 -213.247ZM480.644 -148.115L461.13 -114.916L481.239 -113.803L481.298 -110.39L458.37 -111.658L480.62 -149.512L480.644 -148.115ZM314.635 -204.74L300.158 -173.281L328.7 -201.761L329.117 -201.673L297.399 -170.024L313.487 -204.983L314.635 -204.74ZM501.218 -85.4348L501.025 -86.5806L543.106 -116.669L544.267 -116.215L501.218 -85.4348ZM520.784 -125.382L499.727 -94.2662L499.616 -94.9231L520.345 -125.554L520.784 -125.382ZM495.275 -101.031L491.741 -82.4661L488.43 -77.5758L491.185 -79.5443L489.188 -69.0545L499.931 -73.4604L500.267 -71.4727L486.428 -65.7974L488.425 -76.2871L485.67 -74.3187L488.981 -79.2087L494.269 -106.988L495.275 -101.031ZM339.684 -167.079L348.82 -162.858L347.854 -158.772L334.382 -164.997L339.684 -167.079ZM402.779 -139.48L395.899 -116.293L427.066 -126.56L429.792 -125.11L393.139 -113.036L401.23 -140.304L402.779 -139.48ZM370.737 -144.263L372.984 -139.435L380.918 -143.85L383.803 -143.733L370.224 -136.178L366.379 -144.439L370.737 -144.263ZM435.688 -112.842L434.814 -111.326L439.31 -108.737L437.212 -105.098L432.054 -108.069L435.027 -113.223L435.688 -112.842ZM476.201 -30.0623L555.422 -42.561L558.017 -40.1485L475.73 -27.1663L474.445 -28.3954L476.201 -30.0623ZM453.068 -89.7365L456.24 -81.4684L453.675 -77.7051L449.299 -89.1082L453.068 -89.7365ZM420.941 -94.2847L416.314 -85.0602L426.144 -91.1861L427.406 -90.4351L413.554 -81.8029L420.074 -94.8009L420.941 -94.2847ZM474.886 -69.3924L461.618 -46.8215L475.261 -47.867L475.314 -44.8256L458.858 -43.5644L474.861 -70.7886L474.886 -69.3924ZM348.664 -113.753L362.221 -87.9379L382.106 -104.149L383.019 -103.887L359.461 -84.6805L343.4 -115.265L348.664 -113.753ZM592.258 -14.8829L595.059 -4.83749L611.802 -10.8394L615.814 -10.0093L592.299 -1.58037L588.366 -15.688L592.258 -14.8829ZM552.411 -7.20749L554.631 0.342231L561.016 -1.53448L561.678 0.716611L551.872 3.59933L548.989 -6.202L552.411 -7.20749ZM404.544 -61.5893L387.349 -30.9812L419.704 -47.6507L420.983 -46.4744L384.59 -27.724L403.93 -62.1531L404.544 -61.5893ZM372.77 -62.6253L371.434 -47.3903L368.648 -43.8389L370.256 -62.1676L372.77 -62.6253ZM417.185 6.48669L487.524 -9.99256L489.717 -7.8956L411.089 10.5254L417.185 6.48669ZM560.088 26.2978L575.748 36.929L574.078 40.9253L554.342 27.5273L560.088 26.2978ZM400.511 -11.5933L412.618 -6.68295L413.349 -2.00973L394.004 -9.85576L400.511 -11.5933ZM514.796 42.7866L518.835 54.9817L514.538 53.5978L510.241 40.6244L514.796 42.7866ZM499.439 52.8809L504.122 68.2438L521.815 63.9793L530.46 90.0779L568.493 68.278L570.092 69.0371L527.7 93.3351L519.055 67.2364L501.363 71.5009L495.277 51.5409L499.439 52.8809ZM485.813 68.1492C484.996 70.3077 485.381 72.8336 487.029 74.6694C487.749 75.472 488.626 76.0491 489.572 76.3988C491.335 77.048 493.335 76.9018 495.006 75.9279C494.655 76.8556 494.083 77.7153 493.294 78.4228C491.467 80.0567 488.962 80.4481 486.812 79.6558C485.866 79.3062 484.989 78.729 484.269 77.9266C481.913 75.3022 482.139 71.267 484.768 68.9109C485.097 68.617 485.447 68.3632 485.813 68.1492ZM445.968 76.6822L462.075 118.892L456.06 112.582L455.77 112.858L438.88 68.5986L445.968 76.6822ZM471.854 154.631L516.446 167.157L515.163 170.83L467.871 157.545L471.854 154.631ZM547.515 157.596L517.688 215.629L540.838 213.239L540.477 216.249L514.928 218.886L547.846 154.84L547.515 157.596ZM463.618 160.62L442.91 187.314L471.096 184.376L472.001 187.252L440.151 190.571L463.551 160.406L463.618 160.62ZM489.924 192.79C489.29 195.041 490.266 197.51 492.406 198.674C492.63 198.796 492.861 198.9 493.094 198.986C494.409 199.471 495.833 199.382 497.047 198.813C496.945 199.178 496.8 199.537 496.61 199.884C495.375 202.146 492.683 203.109 490.334 202.244C490.101 202.157 489.871 202.053 489.647 201.931C487.159 200.578 486.244 197.462 487.603 194.974C488.146 193.98 488.971 193.237 489.924 192.79ZM473.359 218.122L488.448 231.517L487.257 236.166L465.301 216.675L473.359 218.122ZM538.677 343.815L519.164 377.015L539.273 378.126L539.332 381.539L516.404 380.272L538.653 342.418L538.677 343.815ZM553.309 390.897L547.221 422.874L557.966 418.468L558.302 420.456L544.461 426.132L552.303 384.942L553.309 390.897Z" fill="#80CFF1"/>
<path fill-rule="evenodd" clip-rule="evenodd" d="M437.359 222.794L429.791 223.761L404.475 212.421L404.225 207.815L437.28 222.623L437.359 222.794Z" fill="#80CFF1"/>
<path fill-rule="evenodd" clip-rule="evenodd" d="M415.137 249.631L415.152 249.637L415.166 249.643L415.181 249.648C418.07 250.715 419.84 253.751 419.227 256.871C418.857 258.743 417.704 260.261 416.175 261.153C416.299 260.825 416.397 260.483 416.467 260.128C417.08 257.009 415.31 253.972 412.421 252.905L412.407 252.901L412.392 252.894L412.377 252.888C412.074 252.78 411.759 252.693 411.434 252.629C409.845 252.317 408.278 252.622 406.981 253.379C408.062 250.512 411.087 248.762 414.194 249.372C414.519 249.436 414.834 249.523 415.137 249.63" fill="#80CFF1"/>
<path fill-rule="evenodd" clip-rule="evenodd" d="M478.011 337.155L474.719 335.611L472.085 311.88L451.413 324.679L449.99 324.012L474.845 308.623L478.011 337.155Z" fill="#80CFF1"/>
<path fill-rule="evenodd" clip-rule="evenodd" d="M171.645 302.174L171.355 298.546L195.04 301.431L191.218 304.559L171.645 302.174Z" fill="#80CFF1"/>
<path fill-rule="evenodd" clip-rule="evenodd" d="M179.635 38.7036L173.744 38.8913L151.879 17.4599L154.242 13.8139L179.635 38.7036Z" fill="#80CFF1"/>
<path fill-rule="evenodd" clip-rule="evenodd" d="M350.108 502.255L345.513 503.532L337.39 494.767L323.484 509.653L323.101 509.759L340.15 491.51L350.108 502.255Z" fill="#80CFF1"/>
<path fill-rule="evenodd" clip-rule="evenodd" d="M165.148 252.156L162.75 252.403L167.432 213.386L170.523 207.374L165.148 252.156Z" fill="#80CFF1"/>
<path fill-rule="evenodd" clip-rule="evenodd" d="M231.349 352.361L228.275 355.288L221.538 348.223L217.212 352.343L216.898 352.014L224.297 344.966L231.349 352.361Z" fill="#80CFF1"/>
<path fill-rule="evenodd" clip-rule="evenodd" d="M388.27 107.114L383.027 104.988L379.45 97.2325L378.415 94.9887L366.331 98.2158L370.077 99.7355L379.45 97.2325L383.244 96.2184L388.27 107.114Z" fill="#80CFF1"/>
<path fill-rule="evenodd" clip-rule="evenodd" d="M324.324 134.287L321.802 132.362L322.865 109.138L308.167 121.955L307.647 121.558L325.625 105.88L324.324 134.287Z" fill="#80CFF1"/>
<path fill-rule="evenodd" clip-rule="evenodd" d="M330.597 47.9085L356.46 73.7303L350.278 73.5703L328.96 52.287L328.715 49.6619L330.597 47.9085ZM286.736 37.1466L286.237 33.7034L341.71 36.8674L338.256 40.0853L286.736 37.1466Z" fill="#80CFF1"/>
<path fill-rule="evenodd" clip-rule="evenodd" d="M356.993 149.761L358.814 149.735L353.105 161.223L340.015 199.822L338.88 198.29L350.345 164.48L356.054 152.992L354.233 153.018L358.888 139.288L311.522 161.379L310.436 159.915L361.648 136.031L356.993 149.761Z" fill="#80CFF1"/>
<path fill-rule="evenodd" clip-rule="evenodd" d="M359.931 119.474L357.078 119.557L356.87 112.521L349.505 112.738L349.411 109.564L359.63 109.263L359.931 119.474Z" fill="#80CFF1"/>
<path fill-rule="evenodd" clip-rule="evenodd" d="M490.585 363.564L485.099 365.371L460.812 352.451L462.023 348.37L490.585 363.564Z" fill="#80CFF1"/>
<path fill-rule="evenodd" clip-rule="evenodd" d="M391.361 213.987L388.448 213.909L386.944 181.262L389.629 176.379L391.361 213.987Z" fill="#80CFF1"/>
<path fill-rule="evenodd" clip-rule="evenodd" d="M348.507 241.63C349.269 244.087 348.066 246.688 345.792 247.741C346.043 246.836 346.046 245.85 345.747 244.887C345.26 243.314 344.081 242.147 342.646 241.618C341.634 241.245 340.499 241.189 339.388 241.532C339.167 241.6 338.954 241.683 338.75 241.777C339.197 240.164 340.43 238.806 342.148 238.275C343.258 237.931 344.394 237.988 345.405 238.361C346.841 238.89 348.02 240.056 348.507 241.63Z" fill="#80CFF1"/>
<path fill-rule="evenodd" clip-rule="evenodd" d="M221.603 118.862L217.979 116.237L277.569 110.344L273.322 113.748L221.603 118.862Z" fill="#80CFF1"/>
<path fill-rule="evenodd" clip-rule="evenodd" d="M213.271 -4.58706L213.189 -8.82151L282.378 14.9715L275.38 16.7715L213.271 -4.58706Z" fill="#80CFF1"/>
<path fill-rule="evenodd" clip-rule="evenodd" d="M419.856 319.361L416.711 321.476L405.03 286.808L406.704 280.329L419.856 319.361Z" fill="#80CFF1"/>
<path fill-rule="evenodd" clip-rule="evenodd" d="M279.463 237.733L277.467 234.603L324.188 233.352L320.056 236.646L279.463 237.733Z" fill="#80CFF1"/>
<path fill-rule="evenodd" clip-rule="evenodd" d="M350.767 349.52L348.413 348.71L356.766 264.973L359.541 261.562L350.767 349.52Z" fill="#80CFF1"/>
<path fill-rule="evenodd" clip-rule="evenodd" d="M170.244 141.524L170.27 141.23L198.93 104.689L173.062 109.397L173.307 106.597L201.689 101.432L170.244 141.524Z" fill="#80CFF1"/>
<path fill-rule="evenodd" clip-rule="evenodd" d="M213.699 185.776L213.725 185.483L232.02 162.159L215.509 165.163L215.755 162.363L234.78 158.901L213.699 185.776Z" fill="#80CFF1"/>
<path fill-rule="evenodd" clip-rule="evenodd" d="M270.797 239.205L267.306 237.789L265.541 226.507L249.833 230.704L246.087 229.184L268.301 223.25L270.797 239.205Z" fill="#80CFF1"/>
<path fill-rule="evenodd" clip-rule="evenodd" d="M280.547 182.412L276.508 184.493L256.621 166.203L258.767 162.382L280.547 182.412Z" fill="#80CFF1"/>
<path fill-rule="evenodd" clip-rule="evenodd" d="M463.115 132.107L454.908 128.419L459.895 123.667L463.115 132.107Z" fill="#A2D9F7" fill-opacity="0.75"/>
<path fill-rule="evenodd" clip-rule="evenodd" d="M391.026 94.139L379.45 97.2323L373.216 83.7148L393.105 73.4695L391.026 94.139Z" fill="#A2D9F7" fill-opacity="0.75"/>
<path fill-rule="evenodd" clip-rule="evenodd" d="M836.985 -176.244L577.454 526.556L533.055 430.289L533.002 430.171L530.622 425.013L520.07 402.134L519.455 400.801L485.701 327.608L487.369 327.805L510.478 262.428L475.17 304.775L463.046 278.49L474.478 247.626L453.084 256.89L429.464 205.676C432.822 204.298 434.652 200.591 433.559 197.061C432.403 193.322 428.433 191.23 424.693 192.386C424.292 192.509 423.918 192.68 423.557 192.866L406.596 156.092L429.681 149.678L419.724 138.933L405.637 154.011L404.298 151.108L439.787 122.521L393.285 127.233L392.9 126.397L417.881 110.582L418.13 113.715L440.146 95.6944L423.475 93.6639L408.217 65.9561L473.361 63.8806L460.32 51.0973L469.679 53.3565L470.63 27.0604L485.106 41.5755L488.835 21.0432L456.887 13.2768L465.445 21.8587L444.316 35.4094L433.697 25.0016L417.048 50.6924L391.833 27.5041L367.373 71.0447L351.561 36.7612L361.403 18.5524L347.021 26.918L338.009 7.37721L376.744 19.7611L367.328 -20.2652L345.431 -12.5973L339.331 -54.5198L348.159 -59.95L341.42 -65.2638L350.354 -72.4268L336.918 -71.0964L336.736 -72.3623L336.454 -71.0524L334.344 -70.8422L323.259 -79.5838L318.454 -69.2708L303.349 -67.7778L300.138 -74.7391L303.379 -79.5862L314.604 -78.7095L314.7 -96.5213L316.638 -99.42L314.713 -98.9152L314.795 -113.629L351.77 -123.138L314.915 -135.812L314.932 -138.963L326.274 -144.32L306.799 -159.223L295.75 -142.403L273.352 -150.104L279.04 -197.5L260.319 -161.076L243.86 -196.765L273.393 -203.368L240.145 -243.147L227.916 -231.333L198.122 -295.935L219.552 -296.618L179.888 -335.497L179.881 -335.486L133.744 -435.523L836.985 -176.244L836.985 -176.244ZM353.288 -198.327L366.835 -204.726L351.554 -213.506L348.863 -209.409L331.686 -186.937L366.12 -166.02L353.288 -198.327ZM481.298 -110.391L480.62 -149.513L458.37 -111.658L481.298 -110.391ZM329.117 -201.673L313.487 -204.983L297.398 -170.024L329.117 -201.673ZM500.267 -71.4724L498.265 -83.3234L544.268 -116.215L520.346 -125.554L496.968 -91.0099L494.269 -106.988L488.981 -79.2087L485.671 -74.3185L488.425 -76.2872L486.429 -65.7977L500.267 -71.4724ZM350.857 -171.469L334.382 -164.997L347.855 -158.773L350.857 -171.469ZM429.792 -125.11L401.231 -140.303L393.14 -113.036L429.792 -125.11ZM383.802 -143.733L366.379 -144.439L370.224 -136.178L383.802 -143.733ZM440.184 -110.253L435.027 -113.223L432.054 -108.07L437.212 -105.098L440.184 -110.253ZM558.017 -40.1484L522.053 -73.5894L472.636 -26.6779L558.017 -40.1484ZM351.66 -131.668L348.899 -137.391L343.171 -134.628L345.934 -128.906L351.66 -131.668ZM463.006 -91.3928L449.299 -89.1082L453.675 -77.7059L463.006 -91.3928ZM427.406 -90.4354L420.074 -94.8011L413.554 -81.8031L427.406 -90.4354ZM475.314 -44.8261L474.862 -70.7889L458.858 -43.5644L475.314 -44.8261ZM383.019 -103.887L343.399 -115.265L359.461 -84.6813L383.019 -103.887ZM615.815 -10.0098L588.366 -15.6878L592.3 -1.58002L615.815 -10.0098ZM561.678 0.716188L558.795 -9.08399L548.989 -6.20184L551.872 3.5986L561.678 0.716188ZM420.983 -46.4742L403.931 -62.1536L384.589 -27.7244L420.983 -46.4742ZM385.151 -64.8787L370.256 -62.1678L368.648 -43.8393L385.151 -64.8787ZM489.717 -7.89586L468.916 -27.7869L411.088 10.5259L489.717 -7.89586ZM582.167 21.5728L554.342 27.5269L574.078 40.9253L582.167 21.5728ZM411.395 -14.5012L394.004 -9.8552L413.349 -2.00985L411.395 -14.5012ZM570.092 69.038L510.242 40.6243L516.076 58.2393L495.277 51.5407L501.363 71.5017L519.055 67.2364L527.701 93.3355L570.092 69.038ZM493.294 78.423C495.921 76.0693 496.144 72.0324 493.788 69.4055C491.435 66.7783 487.394 66.5601 484.768 68.9109C482.139 71.267 481.913 75.3028 484.27 77.9268C484.99 78.7295 485.866 79.3071 486.813 79.656C488.962 80.4485 491.467 80.0564 493.294 78.423ZM470.712 135.518L466.261 133.519L479.665 115.114L473.371 107.934L477.863 101.25L457.143 89.4277L438.88 68.5992L459.316 122.149L453.299 115.84L445.901 122.888L449.308 126.463L416.148 170.557L470.712 135.518ZM515.163 170.83L537.621 106.52L467.871 157.545L515.163 170.83ZM540.477 216.249L547.846 154.84L514.929 218.886L540.477 216.249ZM472.001 187.251L463.552 160.406L440.15 190.572L472.001 187.251ZM496.61 199.885C497.966 197.399 497.05 194.284 494.563 192.928C492.076 191.572 488.96 192.49 487.603 194.974C486.245 197.462 487.159 200.578 489.647 201.931C489.872 202.053 490.101 202.157 490.334 202.243C492.683 203.109 495.375 202.147 496.61 199.885ZM491.066 221.301L465.302 216.675L487.257 236.167L491.066 221.301ZM539.333 381.539L538.653 342.418L516.404 380.272L539.333 381.539ZM558.302 420.456L552.304 384.942L544.462 426.131L558.302 420.456Z" fill="#A2D9F7" fill-opacity="0.75"/>
<path fill-rule="evenodd" clip-rule="evenodd" d="M434.835 226.021L402.501 230.153L401.466 211.073L434.835 226.021Z" fill="#A2D9F7" fill-opacity="0.75"/>
<path fill-rule="evenodd" clip-rule="evenodd" d="M412.378 252.889L412.392 252.894L412.407 252.9L412.422 252.905C415.31 253.972 417.08 257.008 416.468 260.127C415.785 263.587 412.427 265.841 408.966 265.159C405.502 264.479 403.249 261.121 403.929 257.661C404.612 254.201 407.973 251.949 411.434 252.629C411.76 252.693 412.075 252.78 412.378 252.889" fill="#A2D9F7" fill-opacity="0.75"/>
<path fill-rule="evenodd" clip-rule="evenodd" d="M475.251 340.413L447.23 327.269L472.085 311.88L475.251 340.413Z" fill="#A2D9F7" fill-opacity="0.75"/>
<path fill-rule="evenodd" clip-rule="evenodd" d="M170.266 322.706L168.595 301.802L192.28 304.688L170.266 322.706Z" fill="#A2D9F7" fill-opacity="0.75"/>
<path fill-rule="evenodd" clip-rule="evenodd" d="M176.876 41.9609L134.472 43.3123L151.482 17.0713L176.876 41.9609Z" fill="#A2D9F7" fill-opacity="0.75"/>
<path fill-rule="evenodd" clip-rule="evenodd" d="M347.348 505.512L320.341 513.016L337.391 494.767L347.348 505.512Z" fill="#A2D9F7" fill-opacity="0.75"/>
<path fill-rule="evenodd" clip-rule="evenodd" d="M162.388 255.413L143.758 257.335L167.763 210.631L162.388 255.413Z" fill="#A2D9F7" fill-opacity="0.75"/>
<path fill-rule="evenodd" clip-rule="evenodd" d="M228.589 355.618L221.19 362.666L214.139 355.271L221.538 348.223L228.589 355.618Z" fill="#A2D9F7" fill-opacity="0.75"/>
<path fill-rule="evenodd" clip-rule="evenodd" d="M385.511 110.371L363.57 101.473L379.45 97.2323L385.511 110.371Z" fill="#A2D9F7" fill-opacity="0.75"/>
<path fill-rule="evenodd" clip-rule="evenodd" d="M321.564 137.544L304.887 124.815L322.865 109.137L321.564 137.544Z" fill="#A2D9F7" fill-opacity="0.75"/>
<path fill-rule="evenodd" clip-rule="evenodd" d="M327.481 50.8111L353.7 76.9879L328.142 76.3269L325.896 52.2901L290.484 85.2906L283.477 36.9607L338.95 40.1255L327.481 50.8111Z" fill="#A2D9F7" fill-opacity="0.75"/>
<path fill-rule="evenodd" clip-rule="evenodd" d="M354.233 153.018L356.054 152.992L350.345 164.48L337.256 203.079L307.676 163.172L358.888 139.288L354.233 153.018Z" fill="#A2D9F7" fill-opacity="0.75"/>
<path fill-rule="evenodd" clip-rule="evenodd" d="M357.171 122.731L346.953 123.03L346.652 112.822L356.87 112.521L357.171 122.731Z" fill="#A2D9F7" fill-opacity="0.75"/>
<path fill-rule="evenodd" clip-rule="evenodd" d="M487.825 366.821L451.173 378.893L459.263 351.628L487.825 366.821Z" fill="#A2D9F7" fill-opacity="0.75"/>
<path fill-rule="evenodd" clip-rule="evenodd" d="M485.441 401.494L471.59 410.128L478.108 397.13L485.441 401.494Z" fill="#A2D9F7" fill-opacity="0.75"/>
<path fill-rule="evenodd" clip-rule="evenodd" d="M388.602 217.244L366.513 216.653L386.87 179.637L388.602 217.244Z" fill="#A2D9F7" fill-opacity="0.75"/>
<path fill-rule="evenodd" clip-rule="evenodd" d="M345.748 244.887C346.578 247.565 345.074 250.413 342.394 251.244C339.709 252.073 336.864 250.568 336.035 247.889C335.205 245.207 336.705 242.362 339.388 241.532C340.499 241.189 341.635 241.245 342.645 241.618C344.08 242.147 345.26 243.313 345.748 244.887Z" fill="#A2D9F7" fill-opacity="0.75"/>
<path fill-rule="evenodd" clip-rule="evenodd" d="M242.656 139.371L215.219 119.494L274.809 113.602L242.656 139.371Z" fill="#A2D9F7" fill-opacity="0.75"/>
<path fill-rule="evenodd" clip-rule="evenodd" d="M211.233 35.8177L210.429 -5.56427L279.617 18.2293L211.233 35.8177Z" fill="#A2D9F7" fill-opacity="0.75"/>
<path fill-rule="evenodd" clip-rule="evenodd" d="M417.096 322.619L388.979 341.529L403.945 283.586L417.096 322.619Z" fill="#A2D9F7" fill-opacity="0.75"/>
<path fill-rule="evenodd" clip-rule="evenodd" d="M289.926 261.726L274.708 237.86L321.428 236.61L289.926 261.726Z" fill="#A2D9F7" fill-opacity="0.75"/>
<path fill-rule="evenodd" clip-rule="evenodd" d="M348.009 352.777L298.954 335.897L356.782 264.819L348.009 352.777Z" fill="#A2D9F7" fill-opacity="0.75"/>
<path fill-rule="evenodd" clip-rule="evenodd" d="M167.485 144.781L170.548 109.855L198.93 104.689L167.485 144.781Z" fill="#A2D9F7" fill-opacity="0.75"/>
<path fill-rule="evenodd" clip-rule="evenodd" d="M210.94 189.033L212.995 165.621L232.02 162.159L210.94 189.033Z" fill="#A2D9F7" fill-opacity="0.75"/>
<path fill-rule="evenodd" clip-rule="evenodd" d="M268.036 242.461L243.326 232.442L265.541 226.507L268.036 242.461Z" fill="#A2D9F7" fill-opacity="0.75"/>
<path fill-rule="evenodd" clip-rule="evenodd" d="M277.787 185.669L231.301 209.617L256.007 165.639L277.787 185.669Z" fill="#A2D9F7" fill-opacity="0.75"/>
</g>
<defs>
<clipPath id="clip0">
<rect width="816.354" height="998.631" fill="white" transform="matrix(-0.99657 0.0827499 0.0827499 0.99657 813.554 -495)"/>
</clipPath>
</defs>
</svg>
