<svg width="25" height="25" viewBox="0 0 25 25" fill="none" xmlns="http://www.w3.org/2000/svg">
<g clip-path="url(#clip0)">
<path d="M24.9755 7.35007C24.917 6.02172 24.7022 5.1085 24.3945 4.31717C24.077 3.4772 23.5886 2.72518 22.9488 2.10002C22.3236 1.46513 21.5666 0.971793 20.7364 0.659309C19.9405 0.351593 19.032 0.136784 17.7037 0.0782166C16.3654 0.0146894 15.9406 0 12.5464 0C9.15216 0 8.72731 0.0146894 7.39401 0.0732565C6.06566 0.131824 5.15244 0.346824 4.36131 0.654348C3.52115 0.971793 2.76912 1.46017 2.14396 2.10002C1.50907 2.72518 1.01593 3.48216 0.703253 4.3124C0.395538 5.1085 0.180729 6.01676 0.122162 7.34511C0.0586347 8.68338 0.0439453 9.10822 0.0439453 12.5024C0.0439453 15.8967 0.0586347 16.3215 0.117202 17.6548C0.175769 18.9832 0.390769 19.8964 0.698484 20.6877C1.01593 21.5277 1.50907 22.2797 2.14396 22.9049C2.76912 23.5398 3.52611 24.0331 4.35635 24.3456C5.15244 24.6533 6.0607 24.8681 7.38924 24.9267C8.72235 24.9854 9.14739 24.9999 12.5416 24.9999C15.9358 24.9999 16.3607 24.9854 17.694 24.9267C19.0223 24.8681 19.9355 24.6533 20.7267 24.3456C22.4068 23.696 23.7351 22.3677 24.3847 20.6877C24.6923 19.8916 24.9073 18.9832 24.9658 17.6548C25.0244 16.3215 25.0391 15.8967 25.0391 12.5024C25.0391 9.10822 25.0341 8.68338 24.9755 7.35007ZM22.7242 17.5571C22.6705 18.7781 22.4654 19.4374 22.2944 19.8769C21.8744 20.966 21.01 21.8304 19.9209 22.2505C19.4813 22.4214 18.8172 22.6265 17.6011 22.6801C16.2825 22.7389 15.887 22.7534 12.5513 22.7534C9.21569 22.7534 8.81526 22.7389 7.50141 22.6801C6.28047 22.6265 5.62116 22.4214 5.18162 22.2505C4.63964 22.0502 4.14631 21.7328 3.74587 21.3176C3.33075 20.9123 3.01331 20.4239 2.813 19.8819C2.64207 19.4424 2.43699 18.7781 2.38338 17.5621C2.32462 16.2435 2.31013 15.8478 2.31013 12.5122C2.31013 9.17652 2.32462 8.77609 2.38338 7.46243C2.43699 6.24149 2.64207 5.58218 2.813 5.14264C3.01331 4.60047 3.33076 4.10732 3.75083 3.7067C4.15603 3.29158 4.64441 2.97414 5.18658 2.77402C5.62612 2.60309 6.29039 2.39801 7.50637 2.34421C8.82499 2.28564 9.22065 2.27095 12.5561 2.27095C15.8967 2.27095 16.2922 2.28564 17.606 2.34421C18.827 2.39801 19.4863 2.60309 19.9258 2.77402C20.4678 2.97414 20.9611 3.29158 21.3616 3.7067C21.7767 4.11209 22.0941 4.60047 22.2944 5.14264C22.4654 5.58218 22.6705 6.24626 22.7242 7.46243C22.7828 8.78105 22.7975 9.17652 22.7975 12.5122C22.7975 15.8478 22.7828 16.2385 22.7242 17.5571Z" fill="#0082C8"/>
<path d="M12.5463 6.08032C9.0008 6.08032 6.12415 8.95678 6.12415 12.5025C6.12415 16.0482 9.0008 18.9246 12.5463 18.9246C16.092 18.9246 18.9684 16.0482 18.9684 12.5025C18.9684 8.95678 16.092 6.08032 12.5463 6.08032ZM12.5463 16.6684C10.2462 16.6684 8.38041 14.8028 8.38041 12.5025C8.38041 10.2021 10.2462 8.33658 12.5463 8.33658C14.8466 8.33658 16.7122 10.2021 16.7122 12.5025C16.7122 14.8028 14.8466 16.6684 12.5463 16.6684Z" fill="#0082C8"/>
<path d="M20.7219 5.8263C20.7219 6.65426 20.0506 7.32558 19.2224 7.32558C18.3945 7.32558 17.7231 6.65426 17.7231 5.8263C17.7231 4.99816 18.3945 4.32703 19.2224 4.32703C20.0506 4.32703 20.7219 4.99816 20.7219 5.8263Z" fill="#0082C8"/>
</g>
<defs>
<clipPath id="clip0">
<rect width="25" height="25" fill="white"/>
</clipPath>
</defs>
</svg>
