<svg width="1240" height="105" viewBox="0 0 1240 105" fill="none" xmlns="http://www.w3.org/2000/svg">
<g clip-path="url(#clip0)">
<path d="M665.602 88.0448L662.766 96.613L645.168 96.6102C639.251 96.6093 635.459 91.4089 637.402 85.8676L644.065 65.735L649.521 49.2486C650.831 45.3705 654.302 42.7976 658.414 42.7976H680.577L677.742 51.3631H659.677C658.496 51.3631 657.743 51.9104 657.417 52.9861L646.697 85.3773C646.109 86.82 647.028 88.0443 648.528 88.0443H665.602V88.0448Z" fill="#0082C8"/>
<path fill-rule="evenodd" clip-rule="evenodd" d="M652.911 84.9984H649.867L660.011 54.3481H663.055L652.911 84.9984Z" fill="#0082C8"/>
<path d="M738.758 88.0443L735.922 96.6106H718.335C712.418 96.6106 708.626 91.4093 710.57 85.868L718.961 60.5139L722.689 49.2491C723.998 45.371 727.47 42.7981 731.582 42.7981C736.229 42.7981 740.875 42.7981 745.522 42.7981C751.481 42.7981 755.181 47.933 753.326 53.5387L748.429 68.3325C747.388 71.4787 745.257 73.5585 742.116 74.4738L721.483 80.4866L719.754 85.7121C719.424 87.0047 720.313 88.0448 721.696 88.0448L738.758 88.0443ZM743.63 51.3635H732.844C731.725 51.3635 730.989 51.8556 730.639 52.8233L724.737 70.6554L738.924 66.521C739.745 66.2819 740.236 65.7693 740.48 65.0314L744.552 52.7287C744.754 52.1176 744.362 51.3635 743.63 51.3635Z" fill="#0082C8"/>
<path d="M687.673 67.4245L680.849 88.0443H693.002C694.184 88.0443 694.909 87.499 695.263 86.4307L701.105 68.7898C701.157 68.0188 701.082 67.4245 700.12 67.4245H687.673ZM690.508 58.8592H702.179C707.191 58.8592 710.669 62.5085 710.339 67.4245C710.292 68.1273 710.124 68.8501 709.877 69.5969L703.326 89.395C701.926 93.6257 697.877 96.6098 693.425 96.6098L668.881 96.6106L686.691 42.7981H715.611L712.776 51.3635H692.989L690.508 58.8592Z" fill="#0082C8"/>
<path d="M762.964 42.7981H783.663C789.621 42.7981 793.321 47.9329 791.466 53.5389L786.57 68.3325C785.529 71.4787 783.398 73.5585 780.257 74.4738L759.624 80.4866L754.288 96.6106H745.155L762.964 42.7981ZM762.877 70.6554L777.065 66.521C777.886 66.2819 778.377 65.7693 778.621 65.0314L782.692 52.7287C782.895 52.1176 782.503 51.3635 781.771 51.3635H769.263L762.877 70.6554Z" fill="#0082C8"/>
<path d="M618.608 96.6106L627.034 71.1532L609.566 82.1859L604.791 96.6106H595.659L613.468 42.7981H622.601L613.381 70.6554L630.85 59.6229L636.418 42.7981H645.55L627.741 96.6106H618.608Z" fill="#0082C8"/>
<path fill-rule="evenodd" clip-rule="evenodd" d="M622.55 36.147H640.871L634.861 25.2209L621.265 33.8115L622.55 36.147Z" fill="#0082C8"/>
<path fill-rule="evenodd" clip-rule="evenodd" d="M606.692 17.2755L580.436 96.6106H589.568L615.825 17.2755H606.692Z" fill="#0082C8"/>
<path d="M549.741 56.6973C545.904 52.9719 541.497 49.3475 536.468 45.8528L538.148 43.0746C538.208 42.9834 538.265 42.89 538.317 42.7943L538.318 42.7938C543.327 46.264 547.751 49.8628 551.638 53.5648L549.741 56.6973Z" fill="#0082C8"/>
<path d="M566.96 61.4042C568.401 63.354 569.753 65.3533 571.011 67.4C572.881 70.4419 574.54 73.5819 575.974 76.8125L576.004 76.8784L576.276 77.5587L574.472 82.9586L572.447 77.9019C571.094 74.8608 569.533 71.9084 567.777 69.0524C566.881 67.5946 565.933 66.1595 564.934 64.7494L566.96 61.4042Z" fill="#0082C8"/>
<path d="M541.562 37.4275C544.095 39.1729 546.568 41.0042 548.962 42.9265C551.019 44.5772 553.02 46.2968 554.954 48.0873L553.063 51.2112C551.024 49.2955 548.904 47.4609 546.716 45.7047C544.445 43.8817 542.105 42.1449 539.711 40.4888L541.562 37.4275Z" fill="#0082C8"/>
<path d="M602.979 19.2926L577.39 96.6106H571.252L570.935 94.8705C569.442 86.6912 566.384 78.5606 561.326 70.7076L563.395 67.2905C569.01 75.5188 572.502 84.0539 574.324 92.6583L598.606 19.2926H602.979Z" fill="#0082C8"/>
<path d="M539.659 87.1439C537.692 90.524 536.137 93.9367 532.761 96.2426C529.339 98.5788 524.601 99.5931 520.664 100.322C517.559 100.897 506.704 102.272 500.465 102.075C496.977 101.964 495.817 102.011 495.551 98.9146C495.469 97.9589 495.475 96.9785 495.476 96.489C495.497 90.1785 504.222 92.2919 508.149 92.2879C516.452 92.2793 531.068 92.8501 536.222 84.7224L581.966 9.06056L585.503 11.3192L539.659 87.1439Z" fill="#0082C8"/>
<path d="M584.614 18.4299C586.581 15.0499 588.136 11.6367 591.512 9.33073C594.933 6.99454 599.672 5.98032 603.609 5.2516C606.714 4.67678 617.568 3.3014 623.807 3.4986C627.296 3.60889 628.456 3.56278 628.722 6.65889C628.804 7.61459 628.798 8.59518 628.796 9.08479C628.776 15.3953 620.051 13.2819 616.123 13.2855C607.82 13.2941 593.205 12.7233 588.051 20.851L542.307 96.5128L538.77 94.2542L584.614 18.4299Z" fill="#0082C8"/>
<path fill-rule="evenodd" clip-rule="evenodd" d="M519.436 29.4425L518.352 31.6624C516.088 35.6912 532.97 45.7471 535.433 41.3642L537.361 38.2087C538.484 36.3725 535.453 32.5058 530.742 29.6646C526.03 26.8239 521.355 26.0427 520.3 27.9205C519.245 29.7983 522.208 33.6234 526.92 36.4641C529.836 38.2225 532.737 39.191 534.775 39.2294C530.708 39.4257 523.869 36.146 520.968 32.2711C520.228 31.3075 519.619 30.2927 519.436 29.4425Z" fill="#0082C8"/>
<path d="M783.3 96.6106L793.518 65.7355L798.974 49.2491C800.284 45.371 803.755 42.7981 807.867 42.7981H830.029L827.195 51.3635H809.129C807.949 51.3635 807.195 51.9108 806.87 52.9865L792.432 96.6106H783.3Z" fill="#0082C8"/>
<path fill-rule="evenodd" clip-rule="evenodd" d="M798.521 96.6106H795.476L809.463 54.348H812.508L798.521 96.6106Z" fill="#0082C8"/>
<path fill-rule="evenodd" clip-rule="evenodd" d="M109.411 34.9563H0.00186157V39.652H109.411V34.9563Z" fill="#0082C8"/>
<path fill-rule="evenodd" clip-rule="evenodd" d="M109.411 99.7572H0.00186157V104.453H109.411V99.7572Z" fill="#0082C8"/>
<path d="M73.7933 73.7907C71.8956 75.6359 69.3693 76.6901 66.6227 76.6901C62.7839 76.6901 60.6555 74.1857 61.2518 70.6272C61.9753 66.3105 65.8867 62.7185 70.8836 62.7185C73.5646 62.7185 75.0535 63.7073 75.996 65.1897L80.1942 62.2571C79.0475 59.6212 76.6764 57.7757 72.0435 57.7757C63.7038 57.7757 57.0891 63.6741 55.8573 71.0222C54.587 78.6015 59.7711 81.6332 65.5626 81.6332C70.063 81.6332 73.8308 79.8866 76.3023 76.9866L73.7933 73.7907ZM92.0711 81.2373H97.2006L105.567 58.1711H85.0493L76.6824 81.2373H81.8119L88.4514 62.9495H98.7104L92.0711 81.2373ZM104.009 71.4176C103.031 77.2503 106.434 81.6332 112.853 81.6332C120.498 81.6332 127.56 76.0313 128.913 67.9581C129.918 61.9607 126.615 57.7757 120.129 57.7757C111.094 57.7757 104.992 65.5524 104.009 71.4176ZM109.409 70.9896C110.171 66.4422 114.237 62.7185 118.738 62.7185C122.411 62.7185 124.021 65.3548 123.502 68.452C122.762 72.8678 118.778 76.6901 114.245 76.6901C110.869 76.6901 108.823 74.4827 109.409 70.9896ZM132.479 81.2373L135.117 73.9882H139.584C146.038 73.9882 151.614 71.1217 152.62 65.1243C153.249 61.3674 151.899 58.1711 145.313 58.1711H135.716L127.349 81.2373H132.479ZM143.718 62.9495C146.531 62.9495 147.479 64.0034 147.231 65.4865C146.861 67.6944 144.985 69.2103 141.245 69.2103H136.844L139.118 62.9495H143.718ZM153.547 62.9495H160.96L154.32 81.2373H159.45L166.089 62.9495H173.535L175.263 58.1711H155.274L153.547 62.9495ZM173.25 81.2373L189.441 67.7602L184.535 81.2373H189.665L198.032 58.1711H193.762L177.626 71.7142L182.544 58.1711H177.414L169.047 81.2373H173.25ZM193.967 81.2373H204.061C210.017 81.2373 214.944 79.2937 215.938 73.3618C216.329 71.0222 215.624 69.7047 214.515 69.0123C216.451 68.1224 218.349 66.2774 218.752 63.872C219.382 60.1155 217.789 58.1711 212.692 58.1711H202.334L193.967 81.2373ZM207.234 71.7804C209.385 71.7804 210.813 72.1428 210.565 73.6255C210.234 75.6026 208.535 76.4593 205.258 76.4593H200.824L202.535 71.7804H207.234ZM210.435 62.9495C212.818 62.9495 213.479 63.542 213.286 64.696C213.021 66.2774 211.614 67.1669 209.331 67.1669H204.202L205.736 62.9495H210.435ZM231.826 81.2373H236.956L245.323 58.1711H240.193L236.92 67.233H226.628L229.901 58.1711H224.771L216.405 81.2373H221.534L224.868 72.011H235.16L231.826 81.2373ZM238.974 81.2373H244.666L248.098 76.9538H257.629L257.97 81.2373H263.1L261.307 58.1711H257.501L238.974 81.2373ZM256.832 65.9147L257.327 72.6371H251.469L256.832 65.9147ZM278.885 81.2373H284.015L292.382 58.1711H282.057C276 58.1711 270.815 61.0713 269.882 66.6397C269.373 69.6715 270.62 71.5167 272.853 72.6045L262.967 81.2373H269.156L277.878 73.6255H281.651L278.885 81.2373ZM278.314 68.8476C276.196 68.8476 275 67.8919 275.315 66.0137C275.679 63.839 277.715 62.9495 280.66 62.9495H285.525L283.378 68.8476H278.314ZM299.874 81.2373H326.977L335.344 58.1711H330.214L323.575 76.4593H317.717L324.357 58.1711H319.228L312.588 76.4593H306.73L313.37 58.1711H308.24L299.874 81.2373ZM331.279 81.2373H336.408L339.024 74.1199L342.108 71.9121L346.536 81.2373H352.658L346.797 68.8144L360.363 58.1711H353.215L341.458 67.299L344.776 58.1711H339.646L331.279 81.2373ZM355.495 71.4176C354.517 77.2503 357.919 81.6332 364.34 81.6332C371.984 81.6332 379.045 76.0313 380.399 67.9581C381.404 61.9607 378.101 57.7757 371.615 57.7757C362.58 57.7757 356.478 65.5524 355.495 71.4176ZM360.895 70.9896C361.657 66.4422 365.723 62.7185 370.223 62.7185C373.897 62.7185 375.507 65.3548 374.988 68.452C374.248 72.8678 370.264 76.6901 365.731 76.6901C362.355 76.6901 360.309 74.4827 360.895 70.9896ZM392.437 81.2373H397.566L405.933 58.1711H388.559L387.593 60.7743C382.123 75.4382 380.485 76.9208 377.115 76.4926L375.393 81.2373C375.813 81.3033 376.734 81.3363 377.362 81.3363C383.22 81.3363 386.646 76.69 390.757 65.783L391.768 63.1139H399.015L392.437 81.2373ZM399.585 81.2373H405.277L408.709 76.9538H418.239L418.581 81.2373H423.71L421.917 58.1711H418.111L399.585 81.2373ZM417.442 65.9147L417.937 72.6371H412.08L417.442 65.9147Z" fill="#0082C8"/>
<path fill-rule="evenodd" clip-rule="evenodd" d="M218.821 34.9563H109.411V39.652H218.821V34.9563Z" fill="#0082C8"/>
<path fill-rule="evenodd" clip-rule="evenodd" d="M218.821 99.7572H109.411V104.453H218.821V99.7572Z" fill="#0082C8"/>
<path fill-rule="evenodd" clip-rule="evenodd" d="M328.23 34.9563H218.821V39.652H328.23V34.9563Z" fill="#0082C8"/>
<path fill-rule="evenodd" clip-rule="evenodd" d="M328.23 99.7572H218.821V104.453H328.23V99.7572Z" fill="#0082C8"/>
<path fill-rule="evenodd" clip-rule="evenodd" d="M437.64 34.9563H328.23V39.652H437.64V34.9563Z" fill="#0082C8"/>
<path fill-rule="evenodd" clip-rule="evenodd" d="M437.64 99.7572H328.23V104.453H437.64V99.7572Z" fill="#0082C8"/>
<path fill-rule="evenodd" clip-rule="evenodd" d="M479.14 34.9563H437.64V39.652H479.14V34.9563Z" fill="#0082C8"/>
<path fill-rule="evenodd" clip-rule="evenodd" d="M456.503 99.7572H437.64V104.453H456.503V99.7572Z" fill="#0082C8"/>
<path fill-rule="evenodd" clip-rule="evenodd" d="M1131.07 39.652H1240.48V34.9563H1131.07V39.652Z" fill="#0082C8"/>
<path fill-rule="evenodd" clip-rule="evenodd" d="M1131.07 104.453H1240.48V99.7572H1131.07V104.453Z" fill="#0082C8"/>
<path d="M908.544 81.2372H913.674L922.041 58.171H904.667L903.701 60.7742C898.232 75.4382 896.593 76.9207 893.223 76.4925L891.501 81.2372C891.921 81.3032 892.841 81.3363 893.47 81.3363C899.328 81.3363 902.754 76.69 906.866 65.7829L907.876 63.1139H915.123L908.544 81.2372ZM917.976 81.2372H935.979L937.707 76.4593H924.833L926.5 71.8462H938.248L939.948 67.2329H928.2L929.745 62.9494H942.321L944.049 58.171H926.343L917.976 81.2372ZM935.962 85.0928H940.76L942.168 81.2372H957.027L955.62 85.0928H960.418L963.553 76.4593H960.872L967.512 58.171H950.634L949.641 60.9391C946.346 70.1327 943.14 74.6469 941.612 76.4593H939.097L935.962 85.0928ZM953.97 62.9494H960.655L955.743 76.4593H947.039C949.053 74.1198 951.277 69.7373 953.457 64.2343L953.97 62.9494ZM966.648 71.4176C965.671 77.2503 969.073 81.6331 975.493 81.6331C983.138 81.6331 990.199 76.0312 991.553 67.9581C992.557 61.9607 989.254 57.7756 982.768 57.7756C973.733 57.7756 967.631 65.5524 966.648 71.4176ZM972.049 70.9896C972.81 66.4422 976.877 62.7185 981.377 62.7185C985.051 62.7185 986.661 65.3548 986.141 68.452C985.401 72.8677 981.418 76.69 976.884 76.69C973.509 76.69 971.463 74.4827 972.049 70.9896ZM989.989 81.2372H1000.08C1006.04 81.2372 1010.97 79.2937 1011.96 73.3618C1012.35 71.0222 1011.65 69.7046 1010.54 69.0123C1012.47 68.1224 1014.37 66.2774 1014.77 63.8719C1015.4 60.1155 1013.81 58.171 1008.71 58.171H998.355L989.989 81.2372ZM1003.26 71.7804C1005.41 71.7804 1006.84 72.1427 1006.59 73.6255C1006.26 75.6026 1004.56 76.4593 1001.28 76.4593H996.846L998.557 71.7804H1003.26ZM1006.46 62.9494C1008.84 62.9494 1009.5 63.5419 1009.31 64.696C1009.04 66.2774 1007.64 67.1668 1005.35 67.1668H1000.22L1001.76 62.9494H1006.46ZM1009.48 81.2372H1015.17L1018.6 76.9537H1028.14L1028.48 81.2372H1033.61L1031.81 58.171H1028.01L1009.48 81.2372ZM1027.34 65.9146L1027.83 72.6371H1021.98L1027.34 65.9146ZM1049.39 81.2372H1054.52L1062.89 58.171H1052.56C1046.51 58.171 1041.32 61.0712 1040.39 66.6396C1039.88 69.6714 1041.13 71.5167 1043.36 72.6045L1033.47 81.2372H1039.66L1048.38 73.6255H1052.16L1049.39 81.2372ZM1048.82 68.8475C1046.7 68.8475 1045.51 67.8919 1045.82 66.0137C1046.19 63.8389 1048.22 62.9494 1051.17 62.9494H1056.03L1053.88 68.8475H1048.82ZM1068.1 81.2372H1073.79L1077.22 76.9537H1086.75L1087.09 81.2372H1092.22L1090.43 58.171H1086.62L1068.1 81.2372ZM1085.95 65.9146L1086.45 72.6371H1080.59L1085.95 65.9146ZM1099.37 81.2372L1102.01 73.9882H1106.48C1112.93 73.9882 1118.51 71.1216 1119.51 65.1242C1120.14 61.3674 1118.79 58.171 1112.2 58.171H1102.61L1094.24 81.2372H1099.37ZM1110.61 62.9494C1113.42 62.9494 1114.37 64.0034 1114.12 65.4864C1113.75 67.6944 1111.88 69.2102 1108.14 69.2102H1103.74L1106.01 62.9494H1110.61ZM1116.64 81.2372H1134.65L1136.38 76.4593H1123.5L1125.17 71.8462H1136.92L1138.62 67.2329H1126.87L1128.41 62.9494H1140.99L1142.72 58.171H1125.01L1116.64 81.2372ZM1153.54 81.2372H1158.67L1167.04 58.171H1161.91L1158.64 67.2329H1148.35L1151.62 58.171H1146.49L1138.12 81.2372H1143.25L1146.59 72.011H1156.88L1153.54 81.2372ZM1160.69 81.2372H1166.38L1169.82 76.9537H1179.35L1179.69 81.2372H1184.82L1183.03 58.171H1179.22L1160.69 81.2372ZM1178.55 65.9146L1179.05 72.6371H1173.19L1178.55 65.9146Z" fill="#0082C8"/>
<path fill-rule="evenodd" clip-rule="evenodd" d="M1131.07 39.652H1021.66V34.9563H1131.07V39.652Z" fill="#0082C8"/>
<path fill-rule="evenodd" clip-rule="evenodd" d="M1131.07 104.453H1021.66V99.7572H1131.07V104.453Z" fill="#0082C8"/>
<path fill-rule="evenodd" clip-rule="evenodd" d="M912.251 39.652H1021.66V34.9563H912.251V39.652Z" fill="#0082C8"/>
<path fill-rule="evenodd" clip-rule="evenodd" d="M912.251 104.453H1021.66V99.7572H912.251V104.453Z" fill="#0082C8"/>
<path fill-rule="evenodd" clip-rule="evenodd" d="M912.251 39.652H865.092V34.9563H912.251V39.652Z" fill="#0082C8"/>
<path fill-rule="evenodd" clip-rule="evenodd" d="M912.251 104.453H844.342V99.7572H912.251V104.453Z" fill="#0082C8"/>
</g>
<defs>
<clipPath id="clip0">
<rect width="1240" height="100.458" fill="white" transform="translate(0.000183105 4)"/>
</clipPath>
</defs>
</svg>
