<svg width="394" height="117" viewBox="0 0 394 117" fill="none" xmlns="http://www.w3.org/2000/svg">
<path fill-rule="evenodd" clip-rule="evenodd" d="M361.539 59.6952H364.882L347.671 106.927H344.328L361.539 59.6952Z" fill="white"/>
<path d="M198.734 106.93L179.431 106.927C172.94 106.926 169.009 101.115 171.385 94.9217L179.582 72.4215L186.295 53.9965C187.902 49.6622 191.824 46.7869 196.336 46.7869H220.649L217.162 56.3595H197.343C196.047 56.3595 195.197 56.9711 194.792 58.1731L181.604 94.3732C180.896 95.9859 181.85 97.3539 183.496 97.3539H202.223L198.734 106.93Z" fill="white"/>
<path d="M282.484 97.3537L278.996 106.927H259.702C253.211 106.927 249.28 101.115 251.656 94.9214L261.979 66.5862L266.566 53.9963C268.173 49.6622 272.095 46.7869 276.606 46.7869C281.704 46.7869 286.802 46.7869 291.9 46.7869C298.437 46.7869 302.27 52.5258 299.987 58.7905L293.964 75.3241C292.683 78.8401 290.253 81.1642 286.767 82.1874L263.866 88.9069L261.738 94.7471C261.32 96.1919 262.249 97.3539 263.766 97.3539L282.484 97.3537ZM289.447 56.3593H277.613C276.385 56.3593 275.557 56.9093 275.13 57.9909L267.869 77.92L283.616 73.2994C284.527 73.0323 285.088 72.4596 285.388 71.6347L290.397 57.8855C290.646 57.2023 290.249 56.3593 289.447 56.3593Z" fill="white"/>
<path d="M311.035 46.7869H321.05H333.743C340.28 46.7869 344.113 52.5258 341.83 58.7905L335.807 75.3241C334.526 78.8401 332.096 81.1644 328.61 82.1874L305.709 88.9069L299.144 106.927H299.136H289.125H289.121L311.035 46.7869ZM309.712 77.92L325.459 73.2994C326.37 73.0323 326.931 72.4596 327.232 71.6347L332.24 57.8855C332.489 57.2023 332.092 56.3595 331.29 56.3595H317.567L309.712 77.92Z" fill="white"/>
<path d="M349.984 54.7428L350.256 53.9965C351.863 49.6622 355.785 46.7869 360.297 46.7869H384.611L381.123 56.3595H361.304C360.009 56.3595 359.158 56.9711 358.754 58.1733L340.992 106.927H340.984H330.973H330.966L349.982 54.7428H349.984Z" fill="white"/>
<path d="M160.655 78.4782L141.01 90.8053L135.135 106.927H125.116L147.026 46.7869H157.045L145.706 77.9184L165.351 65.5915L172.204 46.7869H182.223L160.313 106.927H150.293L160.655 78.4782Z" fill="white"/>
<path fill-rule="evenodd" clip-rule="evenodd" d="M157.282 39.3538H177.382L171.27 27.1428L155.976 36.7438L157.282 39.3538Z" fill="white"/>
<path d="M75.5005 62.3551C71.3579 58.1948 66.5762 54.1474 61.0942 50.2445L63.0739 47.1421C63.1442 47.0404 63.2107 46.936 63.2734 46.8292L63.2737 46.8286C68.7348 50.7038 73.5374 54.7228 77.7361 58.8567L75.5005 62.3551Z" fill="white"/>
<path d="M94.5428 67.6113C96.078 69.7884 97.5116 72.0214 98.8386 74.307C100.811 77.7038 102.545 81.2108 104.024 84.8183L104.054 84.8918L104.333 85.6512L102.115 91.6819L100.046 86.0345C98.6499 82.6386 97.0184 79.3416 95.1662 76.1521C94.221 74.5242 93.2168 72.9218 92.1555 71.3469L94.5428 67.6113Z" fill="white"/>
<path d="M67.0978 40.8356C69.8593 42.7848 72.5506 44.83 75.1505 46.9765C77.3839 48.8201 79.5527 50.7402 81.6448 52.7399L79.4153 56.2288C77.2122 54.089 74.9146 52.0406 72.5387 50.0791C70.0729 48.0434 67.5259 46.1037 64.9162 44.2543L67.0978 40.8356Z" fill="white"/>
<path d="M104.858 106.927L104.858 106.927H98.0061L97.7171 104.984C96.3593 95.85 93.2529 86.7704 87.9035 78.0008L90.3425 74.1845C96.2994 83.3732 99.8754 92.9051 101.585 102.514L131.439 20.584H131.456H136.338L104.876 106.927H104.858Z" fill="white"/>
<path d="M63.0976 96.3557C60.7743 100.13 58.91 103.942 55.0543 106.516C51.1466 109.126 45.819 110.258 41.3974 111.072C37.9097 111.714 25.7415 113.25 18.7845 113.03C14.8951 112.906 13.5985 112.958 13.4184 109.501C13.3628 108.433 13.4061 107.338 13.4264 106.792C13.6874 99.7445 23.3473 102.104 27.7314 102.1C36.9997 102.091 53.293 102.728 59.3524 93.6516L113.268 9.15759L117.131 11.68L63.0976 96.3557Z" fill="white"/>
<path d="M115.871 19.6204C118.194 15.846 120.058 12.0345 123.914 9.45959C127.822 6.85036 133.149 5.71773 137.571 4.90417C141.059 4.2623 153.227 2.72611 160.184 2.94648C164.073 3.06967 165.37 3.01808 165.55 6.47556C165.605 7.54294 165.562 8.63783 165.542 9.18446C165.281 16.2316 155.621 13.8716 151.237 13.8762C141.969 13.8851 125.675 13.2481 119.616 22.3245L65.7 106.818L61.8368 104.296L115.871 19.6204Z" fill="white"/>
<path d="M201.427 35.8663C200.529 36.7354 199.339 37.2318 198.05 37.2318C196.248 37.2318 195.259 36.0526 195.553 34.377C195.91 32.3446 197.76 30.6538 200.105 30.6538C201.363 30.6538 202.058 31.1191 202.495 31.8173L204.476 30.4368C203.948 29.1954 202.843 28.3267 200.669 28.3267C196.755 28.3267 193.627 31.1037 193.02 34.5634C192.394 38.1315 194.814 39.5588 197.533 39.5588C199.645 39.5588 201.42 38.7365 202.592 37.3714L201.427 35.8663ZM210.967 39.3727H213.375L217.393 28.5131H207.763L203.745 39.3727H206.152L209.341 30.7625H214.156L210.967 39.3727ZM217.601 34.7495C217.12 37.4955 218.699 39.5588 221.712 39.5588C225.3 39.5588 228.636 36.9215 229.304 33.1202C229.799 30.2967 228.265 28.3267 225.221 28.3267C220.981 28.3267 218.086 31.988 217.601 34.7495ZM220.138 34.5479C220.513 32.4066 222.436 30.6538 224.549 30.6538C226.273 30.6538 227.018 31.8947 226.762 33.3531C226.397 35.4322 224.512 37.2318 222.384 37.2318C220.8 37.2318 219.849 36.192 220.138 34.5479ZM231.916 39.3727L233.183 35.9595H235.28C238.309 35.9595 240.938 34.6099 241.433 31.7864C241.743 30.0175 241.122 28.5131 238.031 28.5131H233.527L229.509 39.3727H231.916ZM237.264 30.7625C238.584 30.7625 239.025 31.2587 238.902 31.9567C238.72 32.9965 237.834 33.7101 236.079 33.7101H234.013L235.105 30.7625H237.264ZM242.869 30.7625H246.348L243.16 39.3727H245.567L248.756 30.7625H252.25L253.08 28.5131H243.699L242.869 30.7625ZM253.036 39.3727L260.688 33.0274L258.332 39.3727H260.74L264.758 28.5131H262.754L255.128 34.8891L257.489 28.5131H255.082L251.064 39.3727H253.036ZM263.751 39.3727H268.488C271.284 39.3727 273.604 38.4575 274.094 35.6647C274.287 34.5634 273.961 33.9426 273.444 33.6168C274.356 33.1982 275.254 32.3291 275.452 31.1965C275.763 29.4283 275.023 28.5131 272.63 28.5131H267.769L263.751 39.3727ZM270.015 34.9204C271.025 34.9204 271.694 35.0907 271.572 35.7888C271.408 36.7199 270.607 37.1231 269.069 37.1231H266.988L267.81 34.9204H270.015ZM271.553 30.7625C272.671 30.7625 272.979 31.0415 272.884 31.5848C272.753 32.3291 272.089 32.7484 271.018 32.7484H268.61L269.347 30.7625H271.553ZM282.511 39.3727H284.919L288.937 28.5131H286.53L284.958 32.7791H280.128L281.699 28.5131H279.292L275.274 39.3727H277.681L279.282 35.0287H284.113L282.511 39.3727ZM286.859 39.3727H289.53L291.158 37.3559H295.631L295.774 39.3727H298.181L297.431 28.5131H295.645L286.859 39.3727ZM295.301 32.1585L295.506 35.3235H292.757L295.301 32.1585ZM306.582 39.3727H308.99L313.008 28.5131H308.162C305.319 28.5131 302.875 29.8781 302.414 32.5001C302.164 33.9271 302.741 34.7962 303.786 35.3081L299.111 39.3727H302.016L306.14 35.7888H307.91L306.582 39.3727ZM306.364 33.5394C305.37 33.5394 304.812 33.0895 304.967 32.205C305.147 31.1811 306.105 30.7625 307.488 30.7625H309.771L308.74 33.5394H306.364ZM322.521 39.3727H335.242L339.26 28.5131H336.853L333.664 37.1231H330.915L334.103 28.5131H331.696L328.508 37.1231H325.758L328.947 28.5131H326.54L322.521 39.3727ZM338.254 39.3727H340.661L341.917 36.0217L343.372 34.9823L345.413 39.3727H348.287L345.586 33.524L351.994 28.5131H348.64L343.086 32.8103L344.679 28.5131H342.272L338.254 39.3727ZM350.184 34.7495C349.702 37.4955 351.281 39.5588 354.294 39.5588C357.882 39.5588 361.219 36.9215 361.886 33.1202C362.381 30.2967 360.848 28.3267 357.803 28.3267C353.563 28.3267 350.669 31.988 350.184 34.7495ZM352.72 34.5479C353.096 32.4066 355.018 30.6538 357.131 30.6538C358.855 30.6538 359.6 31.8947 359.344 33.3531C358.979 35.4322 357.095 37.2318 354.967 37.2318C353.383 37.2318 352.431 36.192 352.72 34.5479ZM368.941 39.3727H371.348L375.366 28.5131H367.212L366.748 29.7385C364.124 36.6419 363.349 37.3401 361.769 37.1385L360.942 39.3727C361.138 39.4034 361.571 39.4192 361.866 39.4192C364.615 39.4192 366.241 37.2318 368.214 32.0967L368.699 30.8399H372.1L368.941 39.3727ZM373.288 39.3727H375.96L377.587 37.3559H382.06L382.203 39.3727H384.611L383.861 28.5131H382.074L373.288 39.3727ZM381.73 32.1585L381.935 35.3235H379.186L381.73 32.1585Z" fill="white"/>
<path fill-rule="evenodd" clip-rule="evenodd" d="M108.436 106.927H118.452L150.735 18.3314H140.72L108.436 106.927Z" fill="white"/>
<path fill-rule="evenodd" clip-rule="evenodd" d="M197.578 59.6953H200.921L188.439 93.9496H185.096L197.578 59.6953Z" fill="white"/>
<path d="M227.35 74.3092L218.954 97.3539H232.287C233.583 97.3539 234.403 96.7441 234.838 95.5503L242.025 75.8352C242.116 74.9729 242.059 74.3092 241.005 74.3092H227.35ZM227.357 46.7869H259.085L255.598 56.3595H233.889L230.837 64.7366H243.641C249.139 64.7366 252.794 68.8149 252.216 74.3092C252.133 75.0948 251.917 75.9021 251.613 76.737L243.553 98.8633C241.831 103.592 237.257 106.926 232.373 106.926L205.442 106.927C212.747 86.8804 220.052 66.8338 227.357 46.7869Z" fill="white"/>
<path fill-rule="evenodd" clip-rule="evenodd" d="M41.0751 34.1916C40.1222 35.6713 43.5156 39.5484 48.6549 42.8503C53.7939 46.152 58.7325 47.6292 59.6858 46.1492C60.3795 45.0716 62.3367 42.0325 63.0304 40.9552C63.9837 39.4751 60.5901 35.5986 55.4513 32.2967C50.7921 29.3033 46.2979 27.8098 44.7887 28.6595C44.2815 28.9453 44.1768 29.4498 44.3176 30.0314C45.3298 34.1973 55.9012 40.716 60.5809 41.4492C55.645 41.1425 44.6979 34.7557 43.6469 30.1999L41.0751 34.1916Z" fill="white"/>
</svg>
