<svg width="71" height="70" viewBox="0 0 71 70" fill="none" xmlns="http://www.w3.org/2000/svg">
<g filter="url(#filter0_d)">
<path d="M58.3809 10.2539C58.3809 4.5999 53.7152 0 47.9805 0C42.2457 0 37.5801 4.5999 37.5801 10.2539C37.5801 15.9079 42.2457 20.5078 47.9805 20.5078C53.7152 20.5078 58.3809 15.9079 58.3809 10.2539ZM47.9805 16.4062C44.5396 16.4062 41.7402 13.6463 41.7402 10.2539C41.7402 6.8615 44.5396 4.10156 47.9805 4.10156C51.4213 4.10156 54.2207 6.8615 54.2207 10.2539C54.2207 13.6463 51.4213 16.4062 47.9805 16.4062Z" fill="#79C1E9"/>
<path d="M8.45898 67.9492C8.45898 69.0818 9.3903 70 10.5391 70H60.4609C61.6097 70 62.541 69.0818 62.541 67.9492V49.2052C65.1521 45.7777 66.7012 41.5209 66.7012 36.9141C66.7012 27.8677 59.2362 20.5078 50.0605 20.5078H39.6602C38.0633 20.5078 36.6048 21.1021 35.5 22.0782C34.3952 21.1021 32.9366 20.5078 31.3398 20.5078H20.9395C11.7638 20.5078 4.29883 27.8677 4.29883 36.9141C4.29883 41.5209 5.84793 45.7777 8.45898 49.2052V67.9492ZM12.6191 53.3099C16.098 55.8905 20.4207 57.4219 25.0996 57.4219V65.8984H12.6191V53.3099ZM33.4199 51.2695C33.4199 48.8261 31.9676 46.7111 29.8694 45.7189C30.246 45.3473 30.7662 45.1172 31.3398 45.1172H39.6602C40.2338 45.1172 40.754 45.3473 41.1306 45.7189C39.0324 46.7111 37.5801 48.8261 37.5801 51.2695C37.5801 53.9431 39.3192 56.2226 41.7402 57.0691V65.8984H29.2598V57.0691C31.6808 56.2226 33.4199 53.9431 33.4199 51.2695ZM45.9004 65.8984V57.4219C50.5793 57.4219 54.902 55.8905 58.3809 53.3099V65.8984H45.9004ZM35.5 28.7109C37.7939 28.7109 39.6602 30.5509 39.6602 32.8125C39.6602 35.0741 37.7939 36.9141 35.5 36.9141C33.2061 36.9141 31.3398 35.0741 31.3398 32.8125C31.3398 30.5509 33.2061 28.7109 35.5 28.7109ZM20.9395 24.6094H31.3398C31.8507 24.6094 32.3184 24.7926 32.6809 25.095C29.4765 26.2363 27.1797 29.2645 27.1797 32.8125C27.1797 37.3357 30.9122 41.0156 35.5 41.0156C40.0878 41.0156 43.8203 37.3357 43.8203 32.8125C43.8203 29.2645 41.5235 26.2363 38.3191 25.095C38.6815 24.7926 39.1493 24.6094 39.6602 24.6094H50.0605C56.9423 24.6094 62.541 30.1293 62.541 36.9141C62.541 45.9605 55.076 53.3203 45.9004 53.3203H43.8203C42.6734 53.3203 41.7402 52.4003 41.7402 51.2695C41.7402 50.1387 42.6734 49.2188 43.8203 49.2188H45.9004C52.7821 49.2188 58.3809 43.6989 58.3809 36.9141C58.3809 35.7815 57.4495 34.8633 56.3008 34.8633C55.152 34.8633 54.2207 35.7815 54.2207 36.9141C54.2207 41.4373 50.4882 45.1172 45.9004 45.1172H45.5426C44.684 42.7302 42.3719 41.0156 39.6602 41.0156H31.3398C28.6281 41.0156 26.316 42.7302 25.4574 45.1172H25.0996C20.5118 45.1172 16.7793 41.4373 16.7793 36.9141C16.7793 35.7815 15.848 34.8633 14.6992 34.8633C13.5505 34.8633 12.6191 35.7815 12.6191 36.9141C12.6191 43.6989 18.2179 49.2188 25.0996 49.2188H27.1797C28.3266 49.2188 29.2598 50.1387 29.2598 51.2695C29.2598 52.4003 28.3266 53.3203 27.1797 53.3203H25.0996C15.924 53.3203 8.45898 45.9605 8.45898 36.9141C8.45898 30.1293 14.0577 24.6094 20.9395 24.6094V24.6094Z" fill="#79C1E9"/>
<path d="M33.4199 10.2539C33.4199 4.5999 28.7543 0 23.0195 0C17.2848 0 12.6191 4.5999 12.6191 10.2539C12.6191 15.9079 17.2848 20.5078 23.0195 20.5078C28.7543 20.5078 33.4199 15.9079 33.4199 10.2539ZM23.0195 16.4062C19.5787 16.4062 16.7793 13.6463 16.7793 10.2539C16.7793 6.8615 19.5787 4.10156 23.0195 4.10156C26.4604 4.10156 29.2598 6.8615 29.2598 10.2539C29.2598 13.6463 26.4604 16.4062 23.0195 16.4062Z" fill="#79C1E9"/>
</g>
<defs>
<filter id="filter0_d" x="0.298828" y="0" width="70.4023" height="78" filterUnits="userSpaceOnUse" color-interpolation-filters="sRGB">
<feFlood flood-opacity="0" result="BackgroundImageFix"/>
<feColorMatrix in="SourceAlpha" type="matrix" values="0 0 0 0 0 0 0 0 0 0 0 0 0 0 0 0 0 0 127 0"/>
<feOffset dy="4"/>
<feGaussianBlur stdDeviation="2"/>
<feColorMatrix type="matrix" values="0 0 0 0 0 0 0 0 0 0 0 0 0 0 0 0 0 0 0.25 0"/>
<feBlend mode="normal" in2="BackgroundImageFix" result="effect1_dropShadow"/>
<feBlend mode="normal" in="SourceGraphic" in2="effect1_dropShadow" result="shape"/>
</filter>
</defs>
</svg>
