<svg width="16" height="16" viewBox="0 0 16 16" fill="none" xmlns="http://www.w3.org/2000/svg">
<path d="M12.645 9.91149C12.3175 9.57042 11.9224 9.38807 11.5036 9.38807C11.0883 9.38807 10.6898 9.56705 10.3487 9.90811L9.28163 10.9718C9.19383 10.9246 9.10603 10.8807 9.02161 10.8368C8.90004 10.776 8.78523 10.7186 8.6873 10.6578C7.68773 10.0229 6.77934 9.19559 5.9081 8.12511C5.48598 7.59155 5.20232 7.14243 4.99633 6.68654C5.27324 6.43327 5.52989 6.16988 5.77978 5.91661C5.87433 5.82205 5.96888 5.72412 6.06344 5.62957C6.77259 4.92042 6.77259 4.0019 6.06344 3.29275L5.14154 2.37085C5.03686 2.26617 4.92879 2.15811 4.82749 2.05005C4.62487 1.84068 4.41213 1.62456 4.19263 1.42194C3.86507 1.09776 3.47335 0.925537 3.06136 0.925537C2.64938 0.925537 2.25091 1.09776 1.91322 1.42194C1.90984 1.42532 1.90984 1.42532 1.90646 1.4287L0.758312 2.58698C0.326068 3.01922 0.0795532 3.54602 0.0255227 4.15724C-0.0555231 5.1433 0.234891 6.06181 0.457767 6.6629C1.00483 8.13861 1.82204 9.50626 3.0411 10.9718C4.52019 12.738 6.29982 14.1326 8.33272 15.1153C9.10941 15.4834 10.1461 15.919 11.3044 15.9933C11.3753 15.9967 11.4496 16.0001 11.5171 16.0001C12.2972 16.0001 12.9523 15.7198 13.4656 15.1626C13.469 15.1558 13.4758 15.1525 13.4791 15.1457C13.6547 14.933 13.8573 14.7405 14.0701 14.5345C14.2153 14.396 14.3639 14.2508 14.5091 14.0989C14.8434 13.751 15.019 13.3458 15.019 12.9304C15.019 12.5117 14.84 12.1099 14.499 11.7722L12.645 9.91149ZM13.854 13.4674C13.8506 13.4674 13.8506 13.4708 13.854 13.4674C13.7223 13.6092 13.5872 13.7375 13.442 13.8794C13.2225 14.0887 12.9996 14.3082 12.7902 14.5547C12.4492 14.9194 12.0473 15.0917 11.5205 15.0917C11.4699 15.0917 11.4158 15.0917 11.3652 15.0883C10.3622 15.0241 9.43021 14.6324 8.7312 14.2981C6.81986 13.3728 5.14154 12.0592 3.74688 10.3944C2.59535 9.00648 1.82542 7.72325 1.3155 6.34548C1.00145 5.50463 0.886635 4.8495 0.937288 4.23153C0.971057 3.83643 1.12302 3.50887 1.4033 3.22859L2.55483 2.07706C2.7203 1.92173 2.8959 1.8373 3.06812 1.8373C3.28086 1.8373 3.45309 1.96562 3.56115 2.07369C3.56452 2.07706 3.5679 2.08044 3.57128 2.08382C3.77727 2.2763 3.97313 2.47554 4.17912 2.68828C4.28381 2.79634 4.39187 2.90441 4.49993 3.01584L5.42182 3.93774C5.77978 4.29569 5.77978 4.62663 5.42182 4.98458C5.32389 5.08251 5.22934 5.18044 5.13141 5.27499C4.84775 5.56541 4.5776 5.83556 4.28381 6.09896C4.27705 6.10571 4.2703 6.10909 4.26692 6.11585C3.97651 6.40626 4.03054 6.68992 4.09132 6.8824C4.0947 6.89253 4.09808 6.90267 4.10145 6.9128C4.34121 7.49362 4.6789 8.04068 5.19219 8.69243L5.19557 8.6958C6.1276 9.84395 7.11028 10.7388 8.19427 11.4243C8.33272 11.5121 8.47455 11.5831 8.60963 11.6506C8.73119 11.7114 8.84601 11.7688 8.94394 11.8296C8.95745 11.8363 8.97096 11.8465 8.98446 11.8532C9.09928 11.9106 9.20734 11.9376 9.31878 11.9376C9.59906 11.9376 9.77466 11.762 9.83207 11.7046L10.987 10.5497C11.1018 10.4349 11.2841 10.2965 11.4969 10.2965C11.7063 10.2965 11.8785 10.4282 11.9832 10.543C11.9865 10.5463 11.9865 10.5463 11.9899 10.5497L13.8506 12.4104C14.1984 12.7548 14.1984 13.1094 13.854 13.4674Z" fill="white"/>
<path d="M8.64679 3.80609C9.53154 3.95468 10.3352 4.37342 10.9769 5.01503C11.6185 5.65664 12.0338 6.46035 12.1858 7.3451C12.2229 7.56797 12.4154 7.72331 12.6349 7.72331C12.6619 7.72331 12.6856 7.71993 12.7126 7.71656C12.9625 7.67603 13.1279 7.43965 13.0874 7.18976C12.9051 6.11928 12.3985 5.14335 11.6252 4.37004C10.8519 3.59673 9.87599 3.09019 8.80551 2.90784C8.55562 2.86731 8.32261 3.03278 8.27871 3.2793C8.23481 3.52581 8.3969 3.76557 8.64679 3.80609Z" fill="white"/>
<path d="M15.9814 7.05806C15.6809 5.29531 14.8502 3.69128 13.5737 2.41481C12.2972 1.13834 10.6932 0.307617 8.93043 0.00707225C8.68392 -0.0368276 8.45091 0.132018 8.40701 0.378532C8.36649 0.628424 8.53196 0.86143 8.78185 0.90533C10.3555 1.17211 11.7907 1.9184 12.9321 3.05642C14.0735 4.19782 14.8164 5.633 15.0832 7.20664C15.1203 7.42952 15.3128 7.58486 15.5323 7.58486C15.5593 7.58486 15.5829 7.58148 15.61 7.5781C15.8565 7.54096 16.0253 7.30457 15.9814 7.05806Z" fill="white"/>
</svg>
