<svg width="28" height="27" viewBox="0 0 28 27" fill="none" xmlns="http://www.w3.org/2000/svg">
<path d="M16.6707 18.2849L16.6721 18.2856C16.7207 18.3091 16.7705 18.3329 16.8209 18.3569C16.9 18.3947 16.9809 18.4333 17.0617 18.473L18.8597 16.8058C19.4667 16.2412 20.1807 15.941 20.9286 15.941C21.6825 15.941 22.391 16.2467 22.975 16.8121C22.9752 16.8123 22.9754 16.8125 22.9756 16.8127L26.1857 19.8095C26.1858 19.8096 26.1859 19.8097 26.186 19.8097C26.7933 20.3692 27.1189 21.042 27.1189 21.7497C27.1189 22.4512 26.7997 23.1289 26.2052 23.7044C26.2051 23.7044 26.2051 23.7044 26.205 23.7045L26.1355 23.6326C25.8839 23.8775 25.6265 24.1115 25.3749 24.3346L16.6707 18.2849ZM16.6707 18.2849C16.4592 18.1866 16.2648 18.0961 16.0998 18.0008L16.6707 18.2849ZM25.3611 24.4816C25.3878 24.4576 25.4146 24.4335 25.4415 24.4093L1.04299 7.61132C0.902584 9.20039 1.40572 10.6806 1.79185 11.6493L1.69896 11.6863C1.69896 11.6863 1.69896 11.6863 1.69896 11.6863C2.65191 14.0775 4.07476 16.2913 6.19289 18.66L6.19311 18.6602C8.76495 21.5168 11.8595 23.7726 15.3941 25.3618L15.3947 25.3621C16.7428 25.9564 18.5523 26.6646 20.5775 26.7854L20.579 26.7855C20.7016 26.7909 20.8325 26.7964 20.952 26.7964C22.3279 26.7964 23.4892 26.3356 24.3988 25.4172L24.409 25.4069L24.4109 25.4033C24.4133 25.401 24.4166 25.3978 24.4198 25.3942C24.4231 25.3906 24.427 25.3859 24.4309 25.3803C24.7075 25.0695 25.0234 24.7854 25.3611 24.4816ZM25.0678 22.5473C25.0467 22.5694 25.0247 22.5915 25.0019 22.6137L25.0005 22.6123V22.5174C25.0078 22.5177 25.0158 22.5188 25.0243 22.5213C25.0381 22.5253 25.054 22.5333 25.0678 22.5473ZM24.919 22.553C24.9175 22.5549 24.9155 22.5575 24.9134 22.5606C24.7332 22.7401 24.5494 22.9063 24.3537 23.0833C24.3098 23.123 24.2652 23.1633 24.22 23.2045C23.8398 23.5417 23.4512 23.8976 23.0854 24.2981C22.5152 24.8645 21.8455 25.1325 20.9579 25.1325C20.8695 25.1325 20.7791 25.1325 20.6949 25.1273L20.6947 25.1273C18.9761 25.025 17.3752 24.4002 16.1665 23.8625C12.8677 22.3771 9.97143 20.2684 7.56458 17.5959C5.57561 15.366 4.24891 13.3078 3.37078 11.1008L3.37066 11.1005C2.83012 9.75427 2.63634 8.71492 2.72221 7.74001C2.77841 7.1288 3.02987 6.62351 3.49808 6.18799L5.49191 4.33335C5.76616 4.09421 6.04752 3.97266 6.31424 3.97266C6.64538 3.97266 6.92017 4.15928 7.10029 4.32682L7.11784 4.34315L7.1178 4.34319L7.12035 4.3454C7.47524 4.65387 7.81307 4.97351 8.16975 5.31616L8.16977 5.31618C8.26079 5.40358 8.35322 5.49092 8.44605 5.57863L8.4481 5.58057C8.54035 5.66772 8.63299 5.75526 8.72559 5.84409L8.72559 5.8441L8.72671 5.84514L10.3239 7.33081C10.6248 7.61068 10.7571 7.86357 10.7571 8.1011C10.7571 8.33864 10.6248 8.59152 10.3239 8.87139C10.2662 8.92506 10.2096 8.9783 10.1535 9.03109C10.0429 9.13519 9.9341 9.23758 9.82203 9.33823L9.822 9.3382L9.81989 9.34021C9.32886 9.80784 8.86274 10.2414 8.35634 10.6637L8.35625 10.6636L8.35228 10.6673C8.35235 10.6672 8.35195 10.6676 8.3502 10.6689L8.34672 10.6716L8.34123 10.6759C8.33576 10.6803 8.3253 10.6888 8.3151 10.7019C8.05366 10.9479 7.94083 11.1975 7.91163 11.4322C7.8825 11.6662 7.93794 11.8753 7.99222 12.0352L7.99221 12.0352L7.99278 12.0368L8.01033 12.0857L8.01007 12.0858L8.01306 12.0926C8.43347 13.0399 9.02462 13.9296 9.91784 14.9846L9.9173 14.985L9.92605 14.9932L9.92809 14.9951C11.5479 16.8505 13.2574 18.2986 15.1444 19.4087C15.3885 19.5527 15.6379 19.6687 15.8708 19.777L15.8726 19.7778C16.0843 19.8763 16.2789 19.9669 16.444 20.0622L16.4438 20.0625L16.4518 20.0662C16.4586 20.0694 16.4663 20.0738 16.4788 20.0811L16.4802 20.0818C16.491 20.0881 16.5061 20.0969 16.522 20.1043C16.7326 20.2023 16.9341 20.2497 17.1434 20.2497C17.6683 20.2497 17.9969 19.9441 18.1 19.8482L18.1008 19.8474L20.1016 17.9863C20.2951 17.8063 20.5871 17.6049 20.9169 17.6049C21.2408 17.6049 21.515 17.7957 21.688 17.9722L21.6879 17.9722L21.6913 17.9754L21.703 17.9863L24.9266 20.9848L24.9269 20.9851C25.2168 21.2521 25.3467 21.5092 25.3473 21.7554C25.348 21.9989 25.2222 22.258 24.9421 22.5323C24.9346 22.5372 24.9265 22.5439 24.919 22.553Z" fill="#0082C8" stroke="#0082C8" stroke-width="0.2"/>
<path d="M21.672 15.0286L21.672 15.0286L21.6761 15.0279C22.1465 14.9413 22.4377 14.4453 22.3661 13.9437L22.366 13.943C22.0669 11.9504 21.236 10.1322 19.966 8.69061C18.696 7.24892 17.0909 6.3023 15.328 5.96142L15.328 5.96141L15.3271 5.96125C14.8548 5.87432 14.4324 6.23053 14.3541 6.72928C14.2765 7.22423 14.5612 7.7278 15.0326 7.81477C16.4465 8.08437 17.7332 8.84425 18.7624 10.0125C19.7915 11.1807 20.4587 12.6451 20.703 14.2591C20.7695 14.7113 21.1179 15.042 21.5317 15.042C21.5788 15.042 21.621 15.0359 21.6589 15.0304C21.6633 15.0298 21.6677 15.0292 21.672 15.0286Z" fill="#0082C8" stroke="#0082C8" stroke-width="0.2"/>
<path d="M14.5626 1.37891L14.5626 1.37891L14.5624 1.38027C14.4906 1.88322 14.783 2.37087 15.251 2.46419L15.251 2.46419L15.2516 2.46432C17.7852 2.95186 20.0982 4.31606 21.9396 6.40005C23.781 8.4902 24.9804 11.1193 25.4112 14.0039C25.4777 14.4561 25.8262 14.7869 26.24 14.7869C26.2871 14.7869 26.3292 14.7808 26.3671 14.7753C26.3716 14.7747 26.3759 14.774 26.3803 14.7734L26.3803 14.7735L26.3831 14.773C26.8484 14.6934 27.1465 14.197 27.0687 13.7C26.5776 10.4306 25.2199 7.45396 23.1323 5.08433C21.0446 2.71461 18.419 1.17009 15.5314 0.611132C15.0617 0.516461 14.6405 0.882551 14.5626 1.37891Z" fill="#0082C8" stroke="#0082C8" stroke-width="0.2"/>
</svg>
