<svg width="19" height="19" viewBox="0 0 19 19" fill="none" xmlns="http://www.w3.org/2000/svg">
<path d="M5.24601 4.32396C4.972 4.04973 4.52743 4.04973 4.25341 4.32396C3.23602 5.34136 2.73597 6.75864 2.88129 8.21266C2.91755 8.57488 3.2227 8.84489 3.57906 8.84489C3.60248 8.84489 3.62608 8.8437 3.6495 8.84136C4.03536 8.80277 4.31683 8.45854 4.27824 8.07294C4.17482 7.03963 4.52769 6.03489 5.24601 5.31653C5.52025 5.04255 5.52025 4.59794 5.24601 4.32396Z" fill="#0082C8"/>
<path d="M8.02587 0C3.60039 0 0 3.60039 0 8.02587C0 12.4513 3.60039 16.0517 8.02587 16.0517C12.4513 16.0517 16.0517 12.4513 16.0517 8.02587C16.0517 3.60039 12.4513 0 8.02587 0ZM8.02587 14.6478C4.37445 14.6478 1.40396 11.6773 1.40396 8.02587C1.40396 4.37445 4.37445 1.40396 8.02587 1.40396C11.6771 1.40396 14.6478 4.37445 14.6478 8.02587C14.6478 11.6773 11.6773 14.6478 8.02587 14.6478Z" fill="#0082C8"/>
<path d="M18.7944 17.8018L13.6933 12.7008C13.4191 12.4266 12.975 12.4266 12.7007 12.7008C12.4265 12.9748 12.4265 13.4194 12.7007 13.6934L17.8018 18.7944C17.9389 18.9315 18.1183 19 18.2981 19C18.4778 19 18.6572 18.9315 18.7944 18.7944C19.0686 18.5204 19.0686 18.0758 18.7944 17.8018Z" fill="#0082C8"/>
</svg>
