<svg width="30" height="16" viewBox="0 0 30 16" fill="none" xmlns="http://www.w3.org/2000/svg">
<path d="M29.7755 7.41377C29.5078 7.11506 23.0668 0.0898438 14.9995 0.0898438C6.93224 0.0898438 0.491377 7.11506 0.223545 7.41377C-0.075166 7.74764 -0.075166 8.25236 0.223545 8.58623C0.491377 8.88494 6.93235 15.9102 14.9995 15.9102C23.0667 15.9102 29.5077 8.88494 29.7755 8.58623C30.0742 8.25236 30.0742 7.74764 29.7755 7.41377ZM14.9995 14.1523C11.6075 14.1523 8.8472 11.3921 8.8472 8C8.8472 4.60795 11.6075 1.84766 14.9995 1.84766C18.3916 1.84766 21.1519 4.60795 21.1519 8C21.1519 11.3921 18.3916 14.1523 14.9995 14.1523Z" fill="#0082C8"/>
<path d="M15.8789 6.24219C15.8789 5.35801 16.3178 4.58018 16.9856 4.10176C16.3864 3.79502 15.7181 3.60547 15 3.60547C12.577 3.60547 10.6055 5.57697 10.6055 8C10.6055 10.423 12.577 12.3945 15 12.3945C17.1694 12.3945 18.9649 10.8105 19.3196 8.74074C17.5498 9.31057 15.8789 7.97199 15.8789 6.24219Z" fill="#0082C8"/>
</svg>
