<svg width="31" height="31" viewBox="0 0 31 31" fill="none" xmlns="http://www.w3.org/2000/svg">
<g clip-path="url(#clip0)">
<path d="M15.6873 25.1875C20.172 25.1875 18.5729 22.3484 18.919 21.5321C18.9139 20.9224 18.9087 20.336 18.9294 19.9795C19.2135 20.0596 19.8839 20.3993 21.2686 21.7452C23.4063 23.9023 23.9527 25.1875 25.6796 25.1875H28.8584C29.8659 25.1875 30.3903 24.7703 30.6525 24.4202C30.9057 24.0818 31.1537 23.4877 30.8825 22.5628C30.1733 20.336 26.0374 16.4907 25.7804 16.0851C25.8191 16.0102 25.8811 15.9107 25.9134 15.8591H25.9108C26.7272 14.7805 29.8427 10.1125 30.3012 8.24471C30.3025 8.24212 30.3038 8.23825 30.3038 8.23438C30.5518 7.38187 30.3245 6.82904 30.0894 6.51646C29.7355 6.04888 29.1723 5.8125 28.4115 5.8125H25.2327C24.1684 5.8125 23.3611 6.34854 22.9529 7.32633C22.2696 9.06362 20.3502 12.6364 18.9113 13.9009C18.8674 12.1094 18.8971 10.7415 18.9203 9.72496C18.9668 7.74225 19.1167 5.8125 17.059 5.8125H12.0629C10.7738 5.8125 9.54025 7.22042 10.8758 8.89183C12.0435 10.3566 11.2956 11.1729 11.5475 15.2365C10.5658 14.1838 8.8195 11.3408 7.58467 7.70737C7.2385 6.72442 6.71408 5.81379 5.23771 5.81379H2.05892C0.769833 5.81379 0 6.51646 0 7.69317C0 10.3359 5.84996 25.1875 15.6873 25.1875ZM5.23771 7.75129C5.518 7.75129 5.54642 7.75129 5.75437 8.34158C7.01892 12.0655 9.85542 17.5757 11.9272 17.5757C13.4837 17.5757 13.4837 15.9805 13.4837 15.3799L13.4824 10.5981C13.3972 9.01583 12.8211 8.22792 12.4426 7.75L16.9738 7.75517C16.9764 7.77713 16.948 13.0445 16.9867 14.3207C16.9867 16.1329 18.4256 17.1714 20.6718 14.8981C23.042 12.223 24.6812 8.22404 24.747 8.06129C24.8439 7.82879 24.9279 7.75 25.2327 7.75H28.4115H28.4244C28.4231 7.75387 28.4231 7.75775 28.4218 7.76162C28.1312 9.11787 25.2624 13.4398 24.3027 14.7818C24.2872 14.8025 24.273 14.8245 24.2588 14.8464C23.8364 15.5362 23.4928 16.2982 24.3169 17.3703H24.3182C24.3931 17.4607 24.5882 17.6726 24.8723 17.9671C25.7558 18.879 28.7861 21.9971 29.0547 23.2371C28.8765 23.2655 28.6828 23.2448 25.6796 23.2513C25.0403 23.2513 24.5404 22.2955 22.6326 20.3709C20.9172 18.702 19.8038 18.02 18.7899 18.02C16.8214 18.02 16.9647 19.6178 16.9828 21.5502C16.9893 23.6453 16.9764 22.9826 16.9906 23.1144C16.8756 23.1596 16.5462 23.25 15.6873 23.25C7.49167 23.25 2.1545 10.2416 1.94912 7.75517C2.02017 7.74871 2.99796 7.75258 5.23771 7.75129Z" fill="#0082C8"/>
</g>
<defs>
<clipPath id="clip0">
<rect width="31" height="31" fill="white"/>
</clipPath>
</defs>
</svg>
