<svg width="81" height="56" viewBox="0 0 81 56" fill="none" xmlns="http://www.w3.org/2000/svg">
<path d="M61.1754 35.5717C55.5455 35.5717 50.9653 40.1006 50.9653 45.6675C50.9653 51.2344 55.5455 55.7633 61.1754 55.7633C66.8063 55.7633 71.3855 51.2344 71.3855 45.6675C71.3855 40.1006 66.8054 35.5717 61.1754 35.5717ZM61.1754 50.7154C58.36 50.7154 56.0704 48.4514 56.0704 45.6675C56.0704 42.8836 58.36 40.6196 61.1754 40.6196C63.9908 40.6196 66.2805 42.8836 66.2805 45.6675C66.2805 48.4515 63.9908 50.7154 61.1754 50.7154Z" fill="#B8926B"/>
<path d="M26.291 35.5717C20.661 35.5717 16.0809 40.1006 16.0809 45.6675C16.0809 51.2344 20.661 55.7633 26.291 55.7633C31.921 55.7633 36.5011 51.2344 36.5011 45.6675C36.5011 40.1006 31.921 35.5717 26.291 35.5717ZM26.291 50.7154C23.4756 50.7154 21.1859 48.4514 21.1859 45.6675C21.1859 42.8836 23.4756 40.6196 26.291 40.6196C29.1056 40.6196 31.396 42.8836 31.396 45.6675C31.396 48.4515 29.1064 50.7154 26.291 50.7154Z" fill="#B8926B"/>
<path d="M68.0511 6.67443C67.6172 5.82219 66.7349 5.28453 65.77 5.28453H52.3267V10.3324H64.1959L71.1464 24.002L75.7086 21.7338L68.0511 6.67443Z" fill="#B8926B"/>
<path d="M53.5179 43.2278H34.2038V48.2757H53.5179V43.2278Z" fill="#B8926B"/>
<path d="M18.6333 43.2278H9.78467C8.37477 43.2278 7.23222 44.3577 7.23222 45.7517C7.23222 47.1458 8.37492 48.2756 9.78467 48.2756H18.6334C20.0434 48.2756 21.1859 47.1457 21.1859 45.7517C21.1859 44.3576 20.0432 43.2278 18.6333 43.2278Z" fill="#B8926B"/>
<path d="M80.4639 27.798L75.4432 21.404C74.9609 20.7882 74.2163 20.4281 73.4275 20.4281H54.8792V2.7605C54.8792 1.36638 53.7365 0.236633 52.3267 0.236633H9.78467C8.37477 0.236633 7.23222 1.36654 7.23222 2.7605C7.23222 4.15446 8.37492 5.28437 9.78467 5.28437H49.7741V22.9519C49.7741 24.346 50.9168 25.4758 52.3266 25.4758H72.1776L75.8949 30.2107V43.2275H68.8329C67.423 43.2275 66.2804 44.3574 66.2804 45.7514C66.2804 47.1455 67.4231 48.2752 68.8329 48.2752H78.4473C79.8572 48.2752 80.9998 47.1453 80.9999 45.7514V29.3461C80.9999 28.7857 80.811 28.2406 80.4639 27.798Z" fill="#B8926B"/>
<path d="M18.4632 30.4398H6.72148C5.31158 30.4398 4.16903 31.5698 4.16903 32.9637C4.16903 34.3578 5.31173 35.4876 6.72148 35.4876H18.463C19.8729 35.4876 21.0154 34.3577 21.0154 32.9637C21.0156 31.5698 19.8729 30.4398 18.4632 30.4398Z" fill="#B8926B"/>
<path d="M24.334 20.5122H2.55245C1.1427 20.5122 0 21.6421 0 23.0363C0 24.4304 1.1427 25.5601 2.55245 25.5601H24.334C25.7439 25.5601 26.8865 24.4302 26.8865 23.0363C26.8865 21.6423 25.7439 20.5122 24.334 20.5122Z" fill="#B8926B"/>
<path d="M28.503 10.5848H6.72148C5.31158 10.5848 4.16903 11.7147 4.16903 13.1086C4.16903 14.5027 5.31173 15.6325 6.72148 15.6325H28.503C29.913 15.6325 31.0555 14.5026 31.0555 13.1086C31.0557 11.7147 29.913 10.5848 28.503 10.5848Z" fill="#B8926B"/>
</svg>
