<svg width="55" height="64" viewBox="0 0 55 64" fill="none" xmlns="http://www.w3.org/2000/svg">
<path d="M53.3026 39.625C54.1655 38.6287 54.6912 37.3138 54.6912 35.875C54.6912 32.7738 52.2512 30.25 49.2529 30.25H38.6979C39.7433 26.9688 40.1892 22.615 40.1892 20.7488V18.875C40.1892 14.74 36.9359 11.375 32.9382 11.375H31.1255C30.294 11.375 29.5689 11.96 29.3671 12.795L28.3798 16.8813C26.9961 22.6038 22.6032 28.9175 18.0568 30.065C17.2604 27.98 15.2942 26.5 12.998 26.5H2.12158C1.12095 26.5 0.308838 27.34 0.308838 28.375V62.125C0.308838 63.16 1.12095 64 2.12158 64H12.998C15.16 64 17.0308 62.6887 17.907 60.7937L24.1355 62.9412C26.1719 63.6437 28.294 64 30.4415 64H45.6274C48.6257 64 51.0657 61.4762 51.0657 58.375C51.0657 57.6437 50.9303 56.9437 50.6838 56.3025C52.9896 55.6512 54.6912 53.465 54.6912 50.875C54.6912 49.4362 54.1655 48.1213 53.3026 47.125C54.1655 46.1287 54.6912 44.8138 54.6912 43.375C54.6912 41.9362 54.1655 40.6213 53.3026 39.625ZM14.8108 58.375C14.8108 59.4087 13.9975 60.25 12.998 60.25H3.93433V30.25H12.998C13.9975 30.25 14.8108 31.0913 14.8108 32.125V58.375ZM45.6274 41.5H49.2529C50.2524 41.5 51.0657 42.3413 51.0657 43.375C51.0657 44.4087 50.2524 45.25 49.2529 45.25H45.6274C44.6268 45.25 43.8147 46.09 43.8147 47.125C43.8147 48.16 44.6268 49 45.6274 49H49.2529C50.2524 49 51.0657 49.8413 51.0657 50.875C51.0657 51.9087 50.2524 52.75 49.2529 52.75H45.6274C44.6268 52.75 43.8147 53.59 43.8147 54.625C43.8147 55.66 44.6268 56.5 45.6274 56.5C46.6269 56.5 47.4402 57.3412 47.4402 58.375C47.4402 59.4087 46.6269 60.25 45.6274 60.25H30.4415C28.6843 60.25 26.9477 59.9587 25.2812 59.3837L18.4363 57.0237V33.8225C21.2799 33.2638 24.063 31.4013 26.5755 28.3525C29.0287 25.375 31.0179 21.4275 31.8965 17.7913L32.5406 15.125H32.9382C34.9371 15.125 36.5637 16.8075 36.5637 18.875V20.7488C36.5637 23.2663 35.8024 28.095 34.8283 30.25H31.1255C30.1249 30.25 29.3127 31.09 29.3127 32.125C29.3127 33.16 30.1249 34 31.1255 34H49.2529C50.2524 34 51.0657 34.8413 51.0657 35.875C51.0657 36.9087 50.2524 37.75 49.2529 37.75H45.6274C44.6268 37.75 43.8147 38.59 43.8147 39.625C43.8147 40.66 44.6268 41.5 45.6274 41.5Z" fill="#B8926B"/>
<path d="M9.37263 56.5C10.3738 56.5 11.1854 55.6605 11.1854 54.625C11.1854 53.5895 10.3738 52.75 9.37263 52.75C8.37148 52.75 7.55989 53.5895 7.55989 54.625C7.55989 55.6605 8.37148 56.5 9.37263 56.5Z" fill="#B8926B"/>
<path d="M34.7509 0C33.7498 0 32.9382 0.8395 32.9382 1.875V5.75C32.9382 6.7855 33.7498 7.625 34.7509 7.625C35.7521 7.625 36.5637 6.7855 36.5637 5.75V1.875C36.5637 0.8395 35.7521 0 34.7509 0Z" fill="#B8926B"/>
<path d="M27.0601 8.26847L24.4965 5.61684C23.7887 4.88459 22.6409 4.88459 21.9329 5.61684C21.225 6.34909 21.225 7.53622 21.9329 8.26847L24.4965 10.9201C25.2043 11.6522 26.3523 11.6523 27.0601 10.9201C27.768 10.1878 27.768 9.00072 27.0601 8.26847Z" fill="#B8926B"/>
<path d="M47.5689 5.61684C46.8611 4.88459 45.7133 4.88459 45.0053 5.61684L42.4418 8.26834C41.7338 9.0006 41.7338 10.1877 42.4418 10.92C43.1496 11.6522 44.2974 11.6523 45.0053 10.9201L47.5689 8.26847C48.2769 7.53622 48.2769 6.34909 47.5689 5.61684Z" fill="#B8926B"/>
</svg>
