<svg width="60" height="60" viewBox="0 0 60 60" fill="none" xmlns="http://www.w3.org/2000/svg">
<path d="M8.49557 60C7.83818 60 7.28192 59.7954 6.8268 59.3862C6.42225 58.9258 6.21997 58.3632 6.21997 57.6982C6.21997 57.1355 6.39697 56.5985 6.75095 56.087L49.6081 0.997443C49.9115 0.690539 50.2149 0.46036 50.5183 0.306906C50.8217 0.102302 51.1504 0 51.5044 0C52.1618 0 52.6928 0.230179 53.0973 0.690537C53.5525 1.09975 53.78 1.66241 53.78 2.37852C53.78 2.99233 53.6536 3.45269 53.4008 3.75959L10.3161 59.156C9.65866 59.7187 9.05183 60 8.49557 60ZM14.6397 29.5396C11.9595 29.5396 9.50695 28.8747 7.28192 27.5448C5.05689 26.2148 3.28698 24.4246 1.97219 22.1739C0.657396 19.9233 0 17.4425 0 14.7315C0 12.0205 0.657396 9.56522 1.97219 7.36573C3.28698 5.11509 5.05689 3.32481 7.28192 1.99489C9.50695 0.664962 11.9595 0 14.6397 0C17.3198 0 19.7472 0.664962 21.9216 1.99489C24.1466 3.32481 25.9166 5.11509 27.2313 7.36573C28.5967 9.56522 29.2794 12.0205 29.2794 14.7315C29.2794 17.4425 28.622 19.9233 27.3072 22.1739C25.9924 24.4246 24.2225 26.2148 21.9975 27.5448C19.7724 28.8747 17.3198 29.5396 14.6397 29.5396ZM14.6397 25.0895C16.5107 25.0895 18.2048 24.6292 19.7219 23.7084C21.2895 22.7366 22.5284 21.4578 23.4387 19.8721C24.3995 18.2864 24.8799 16.5729 24.8799 14.7315C24.8799 12.8389 24.3995 11.1253 23.4387 9.5908C22.4779 8.05627 21.2137 6.82865 19.646 5.90793C18.129 4.93606 16.4602 4.45013 14.6397 4.45013C12.8698 4.45013 11.201 4.93606 9.63338 5.90793C8.06574 6.82865 6.80152 8.05627 5.84071 9.5908C4.93047 11.1253 4.47535 12.8389 4.47535 14.7315C4.47535 16.5729 4.93047 18.2864 5.84071 19.8721C6.80152 21.4578 8.04045 22.7366 9.55752 23.7084C11.1252 24.6292 12.8192 25.0895 14.6397 25.0895ZM45.3603 60C42.6801 60 40.2276 59.335 38.0025 58.0051C35.8281 56.6752 34.0834 54.9105 32.7686 52.711C31.4539 50.4604 30.7965 47.9795 30.7965 45.2685C30.7965 42.5575 31.4539 40.0767 32.7686 37.8261C34.0834 35.5755 35.8281 33.7852 38.0025 32.4552C40.2276 31.1253 42.6801 30.4604 45.3603 30.4604C48.0405 30.4604 50.493 31.1253 52.7181 32.4552C54.9431 33.7852 56.713 35.5755 58.0278 37.8261C59.3426 40.0767 60 42.5575 60 45.2685C60 47.9795 59.3426 50.4604 58.0278 52.711C56.713 54.9105 54.9431 56.6752 52.7181 58.0051C50.493 59.335 48.0405 60 45.3603 60ZM45.3603 55.5499C47.2314 55.5499 48.9254 55.0895 50.4425 54.1688C52.0101 53.1969 53.249 51.9437 54.1593 50.4092C55.1201 48.8235 55.6005 47.11 55.6005 45.2685C55.6005 43.4271 55.1201 41.7136 54.1593 40.1279C53.249 38.5422 52.0101 37.289 50.4425 36.3683C48.8748 35.3964 47.1808 34.9105 45.3603 34.9105C43.5398 34.9105 41.8458 35.3964 40.2781 36.3683C38.7105 37.289 37.4463 38.5422 36.4855 40.1279C35.5752 41.6624 35.1201 43.376 35.1201 45.2685C35.1201 47.11 35.5752 48.8235 36.4855 50.4092C37.4463 51.9437 38.7105 53.1969 40.2781 54.1688C41.8458 55.0895 43.5398 55.5499 45.3603 55.5499Z" fill="#B8926B"/>
</svg>
