<svg width="25" height="26" viewBox="0 0 25 26" fill="none" xmlns="http://www.w3.org/2000/svg">
<path d="M18.2327 0.11731H6.76727C3.03574 0.11731 0 3.15305 0 6.88458V18.3502C0 22.0816 3.03574 25.1173 6.76727 25.1173H18.2329C21.9643 25.1173 25 22.0816 25 18.3502V6.88458C25 3.15305 21.9643 0.11731 18.2327 0.11731ZM12.5 19.4531C8.7307 19.4531 5.66425 16.3866 5.66425 12.6173C5.66425 8.84801 8.7307 5.78156 12.5 5.78156C16.2693 5.78156 19.3357 8.84801 19.3357 12.6173C19.3357 16.3866 16.2693 19.4531 12.5 19.4531ZM19.4992 7.39365C18.3853 7.39365 17.4793 6.48766 17.4793 5.37377C17.4793 4.25988 18.3853 3.3537 19.4992 3.3537C20.6131 3.3537 21.5193 4.25988 21.5193 5.37377C21.5193 6.48766 20.6131 7.39365 19.4992 7.39365Z" fill="#C3B8AC"/>
<path d="M12.5003 7.24717C9.53938 7.24717 7.1302 9.65615 7.1302 12.6173C7.1302 15.5783 9.53938 17.9874 12.5003 17.9874C15.4615 17.9874 17.8705 15.5783 17.8705 12.6173C17.8705 9.65615 15.4615 7.24717 12.5003 7.24717Z" fill="#C3B8AC"/>
<path d="M19.4991 4.8195C19.1935 4.8195 18.9448 5.06822 18.9448 5.37378C18.9448 5.67933 19.1935 5.92805 19.4991 5.92805C19.8048 5.92805 20.0535 5.67952 20.0535 5.37378C20.0535 5.06803 19.8048 4.8195 19.4991 4.8195Z" fill="#C3B8AC"/>
</svg>
