<svg width="30" height="22" viewBox="0 0 30 22" fill="none" xmlns="http://www.w3.org/2000/svg">
<path d="M28.8307 1.9297C27.7478 0.642406 25.7484 0.11731 21.9301 0.11731H8.06961C4.1639 0.11731 2.13068 0.676278 1.05184 2.04679C0 3.38305 0 5.35192 0 8.07689V13.2707C0 18.5498 1.248 21.2301 8.06961 21.2301H21.9302C25.2414 21.2301 27.0763 20.7668 28.2633 19.6308C29.4806 18.4658 30 16.5637 30 13.2707V8.07689C30 5.20318 29.9186 3.2227 28.8307 1.9297ZM19.2601 11.3908L12.9661 14.6803C12.8254 14.7538 12.6715 14.7903 12.5178 14.7903C12.3438 14.7903 12.1702 14.7435 12.0165 14.6504C11.7269 14.4749 11.5501 14.1611 11.5501 13.8226V7.26476C11.5501 6.92683 11.7264 6.61328 12.0154 6.43773C12.3045 6.26218 12.664 6.25018 12.9639 6.40599L19.2579 9.67424C19.5781 9.8405 19.7792 10.1711 19.7797 10.5318C19.7801 10.8927 19.5798 11.2238 19.2601 11.3908Z" fill="#C3B8AC"/>
</svg>
